<?xml version="1.0" encoding="utf-8"?>
<!-- Generator: Adobe Illustrator 22.0.1, SVG Export Plug-In . SVG Version: 6.00 Build 0)  -->
<svg version="1.1" id="blog" xmlns="http://www.w3.org/2000/svg" xmlns:xlink="http://www.w3.org/1999/xlink" x="0px" y="0px"
	 viewBox="0 0 512 512" style="enable-background:new 0 0 512 512;" xml:space="preserve">
<style type="text/css">
	.st0{fill:#CC3333;}
</style>
<g>
	<g>
		<path class="st0" d="M502,125c5.5,0,10-4.5,10-10V10c0-5.5-4.5-10-10-10H10C4.5,0,0,4.5,0,10v492c0,5.5,4.5,10,10,10h470.2
			c17.5,0,31.8-14.2,31.8-31.8V202.4c0-1.5-0.3-3-1-4.4l-40-82c-1.7-3.4-5.2-5.6-9-5.6s-7.3,2.2-9,5.6l-40,82c-0.7,1.4-1,2.9-1,4.4
			v277.9c0,4.1,0.8,8.1,2.3,11.8H20V91.9c0.3,0,0.7,0.1,1,0.1h471v23C492,120.5,496.5,125,502,125z M462,143.2l24,49.2h-48
			L462,143.2z M432,212.4h60v223.5h-24.3v-86.5c0-5.5-4.5-10-10-10s-10,4.5-10,10v86.5H432V212.4z M432,455.9h60v24.4
			c0,6.5-5.3,11.8-11.8,11.8h-36.5c-6.5,0-11.8-5.3-11.8-11.8V455.9z M21,72c-0.3,0-0.7,0-1,0.1V20h472v52H21z"/>
	</g>
</g>
<g>
	<g>
		<path class="st0" d="M448,36H222.1c-5.5,0-10,4.5-10,10s4.5,10,10,10H448c5.5,0,10-4.5,10-10S453.5,36,448,36z"/>
	</g>
</g>
<g>
	<g>
		<path class="st0" d="M111.1,38.9c-1.9-1.9-4.4-2.9-7.1-2.9c-2.6,0-5.2,1.1-7.1,2.9C95.1,40.8,94,43.4,94,46s1.1,5.2,2.9,7.1
			s4.4,2.9,7.1,2.9s5.2-1.1,7.1-2.9c1.9-1.9,2.9-4.4,2.9-7.1S112.9,40.8,111.1,38.9z"/>
	</g>
</g>
<g>
	<g>
		<path class="st0" d="M71.1,38.9C69.2,37.1,66.6,36,64,36s-5.2,1.1-7.1,2.9C55.1,40.8,54,43.4,54,46s1.1,5.2,2.9,7.1S61.4,56,64,56
			c2.6,0,5.2-1.1,7.1-2.9c1.9-1.9,2.9-4.4,2.9-7.1S72.9,40.8,71.1,38.9z"/>
	</g>
</g>
<g>
	<g>
		<path class="st0" d="M151.1,38.9c-1.9-1.9-4.4-2.9-7.1-2.9s-5.2,1.1-7.1,2.9S134,43.4,134,46s1.1,5.2,2.9,7.1s4.4,2.9,7.1,2.9
			s5.2-1.1,7.1-2.9c1.9-1.9,2.9-4.4,2.9-7.1S152.9,40.8,151.1,38.9z"/>
	</g>
</g>
<g>
	<g>
		<path class="st0" d="M204,120H64c-5.5,0-10,4.5-10,10v144c0,5.5,4.5,10,10,10h140c5.5,0,10-4.5,10-10V130
			C214,124.5,209.5,120,204,120z M194,264H74V140h120V264z"/>
	</g>
</g>
<g>
	<g>
		<path class="st0" d="M457.7,308.3c-5.5,0-10,4.5-10,10v0.1c0,5.5,4.5,10,10,10s10-4.5,10-10v-0.1
			C467.7,312.8,463.2,308.3,457.7,308.3z"/>
	</g>
</g>
<g>
	<g>
		<path class="st0" d="M379.3,120H251c-5.5,0-10,4.5-10,10s4.5,10,10,10h128.3c5.5,0,10-4.5,10-10C389.3,124.5,384.8,120,379.3,120z
			"/>
	</g>
</g>
<g>
	<g>
		<path class="st0" d="M379.3,168H251c-5.5,0-10,4.5-10,10s4.5,10,10,10h128.3c5.5,0,10-4.5,10-10S384.8,168,379.3,168z"/>
	</g>
</g>
<g>
	<g>
		<path class="st0" d="M379.3,216H251c-5.5,0-10,4.5-10,10s4.5,10,10,10h128.3c5.5,0,10-4.5,10-10S384.8,216,379.3,216z"/>
	</g>
</g>
<g>
	<g>
		<path class="st0" d="M300.2,264H251c-5.5,0-10,4.5-10,10s4.5,10,10,10h49.2c5.5,0,10-4.5,10-10S305.7,264,300.2,264z"/>
	</g>
</g>
<g>
	<g>
		<path class="st0" d="M379.3,332H258.5c-5.5,0-10,4.5-10,10s4.5,10,10,10h120.8c5.5,0,10-4.5,10-10S384.8,332,379.3,332z"/>
	</g>
</g>
<g>
	<g>
		<path class="st0" d="M204,332h-92.9c-5.5,0-10,4.5-10,10s4.5,10,10,10H204c5.5,0,10-4.5,10-10S209.5,332,204,332z"/>
	</g>
</g>
<g>
	<g>
		<path class="st0" d="M71.1,334.9c-1.9-1.9-4.4-2.9-7.1-2.9s-5.2,1.1-7.1,2.9S54,339.4,54,342s1.1,5.2,2.9,7.1
			c1.9,1.9,4.4,2.9,7.1,2.9c2.6,0,5.2-1.1,7.1-2.9c1.9-1.9,2.9-4.4,2.9-7.1S72.9,336.8,71.1,334.9z"/>
	</g>
</g>
<g>
	<g>
		<path class="st0" d="M379.3,380H258.5c-5.5,0-10,4.5-10,10s4.5,10,10,10h120.8c5.5,0,10-4.5,10-10S384.8,380,379.3,380z"/>
	</g>
</g>
<g>
	<g>
		<path class="st0" d="M204,380H64c-5.5,0-10,4.5-10,10s4.5,10,10,10h140c5.5,0,10-4.5,10-10S209.5,380,204,380z"/>
	</g>
</g>
<g>
	<g>
		<path class="st0" d="M379.3,428H258.5c-5.5,0-10,4.5-10,10s4.5,10,10,10h120.8c5.5,0,10-4.5,10-10S384.8,428,379.3,428z"/>
	</g>
</g>
<g>
	<g>
		<path class="st0" d="M204,428H64c-5.5,0-10,4.5-10,10s4.5,10,10,10h140c5.5,0,10-4.5,10-10S209.5,428,204,428z"/>
	</g>
</g>
<g>
	<g>
		<path class="st0" d="M172.2,232.4l-29-68.7c-1.6-3.7-5.2-6.1-9.2-6.1s-7.6,2.4-9.2,6.1l-29,68.7c-2.1,5.1,0.2,11,5.3,13.1
			c5.1,2.1,11-0.2,13.1-5.3l3.6-8.6h32.3l3.6,8.6c1.6,3.8,5.3,6.1,9.2,6.1c1.3,0,2.6-0.3,3.9-0.8C172,243.4,174.4,237.5,172.2,232.4
			z M126.3,211.6l7.7-18.3l7.7,18.3H126.3z"/>
	</g>
</g>
</svg>
