<?xml version="1.0" encoding="utf-8"?>
<!-- Generator: Adobe Illustrator 22.0.1, SVG Export Plug-In . SVG Version: 6.00 Build 0)  -->
<svg version="1.1" id="card" xmlns="http://www.w3.org/2000/svg" xmlns:xlink="http://www.w3.org/1999/xlink" x="0px" y="0px"
	 viewBox="0 0 512 512" style="enable-background:new 0 0 512 512;" xml:space="preserve">
<style type="text/css">
	.st0{fill:#CC3333;}
</style>
<path class="st0" d="M467.7,84H44.2C19.9,84,0,103.9,0,128.3v255.2c0,24.4,19.9,44.3,44.2,44.3h423.5c24.4,0,44.3-19.9,44.3-44.3
	V128.3C512,103.9,492.1,84,467.7,84z M496.8,383.4c0,16-13,29-29,29H44.2c-16,0-29-13-29-29V128.3c0-16,13-29,29-29h423.5
	c16,0,29,13,29,29V383.4z"/>
<path class="st0" d="M227.6,144.8H51.2c-4.2,0-7.6,3.4-7.6,7.6v18.2c0,4.2,3.4,7.6,7.6,7.6s7.6-3.4,7.6-7.6V160H220v185.5H58.8
	V201.1c0-4.2-3.4-7.6-7.6-7.6s-7.6,3.4-7.6,7.6v152.1c0,4.2,3.4,7.6,7.6,7.6h176.4c4.2,0,7.6-3.4,7.6-7.6V152.4
	C235.2,148.2,231.8,144.8,227.6,144.8z"/>
<path class="st0" d="M462.8,162.5H272.2c-4.2,0-7.6,3.4-7.6,7.6s3.4,7.6,7.6,7.6h190.6c4.2,0,7.6-3.4,7.6-7.6S467,162.5,462.8,162.5
	z"/>
<path class="st0" d="M462.8,217.6h-42.6c-4.2,0-7.6,3.4-7.6,7.6s3.4,7.6,7.6,7.6h42.6c4.2,0,7.6-3.4,7.6-7.6S467,217.6,462.8,217.6z
	"/>
<path class="st0" d="M272.2,232.8h117.6c4.2,0,7.6-3.4,7.6-7.6s-3.4-7.6-7.6-7.6H272.2c-4.2,0-7.6,3.4-7.6,7.6
	S268,232.8,272.2,232.8z"/>
<path class="st0" d="M462.8,272.8H272.2c-4.2,0-7.6,3.4-7.6,7.6s3.4,7.6,7.6,7.6h190.6c4.2,0,7.6-3.4,7.6-7.6S467,272.8,462.8,272.8
	z"/>
<path class="st0" d="M375.6,327.9H272.2c-4.2,0-7.6,3.4-7.6,7.6s3.4,7.6,7.6,7.6h103.4c4.2,0,7.6-3.4,7.6-7.6
	S379.8,327.9,375.6,327.9z"/>
<path class="st0" d="M86.2,328.8c0,4.2,3.4,7.6,7.6,7.6s7.6-3.4,7.6-7.6c0-21,17.1-38,38-38s38,17.1,38,38c0,4.2,3.4,7.6,7.6,7.6
	s7.6-3.4,7.6-7.6c0-19.3-10.4-36.3-25.8-45.6c15.5-9.3,25.8-26.3,25.8-45.6c0-29.3-23.9-53.2-53.2-53.2c-29.4,0-53.2,23.9-53.2,53.2
	c0,19.3,10.4,36.3,25.8,45.6C96.6,292.5,86.2,309.5,86.2,328.8z M101.4,237.6c0-21,17.1-38,38-38s38,17.1,38,38s-17.1,38-38,38
	S101.4,258.6,101.4,237.6z"/>
</svg>
