<?xml version="1.0" encoding="utf-8"?>
<!-- Generator: Adobe Illustrator 23.0.2, SVG Export Plug-In . SVG Version: 6.00 Build 0)  -->
<svg version="1.1" id="Слой_1" xmlns="http://www.w3.org/2000/svg" xmlns:xlink="http://www.w3.org/1999/xlink" x="0px"
     y="0px"
     viewBox="0 0 65 65" style="enable-background:new 0 0 65.32 65.4242;" xml:space="preserve">
<path d="M51.5,36.3l4.3,2.4c0.5,0.2,0.7,0.8,0.5,1.3c-1.1,3.5-3.1,6.7-5.6,9.3c-0.3,0.4-1,0.5-1.4,0.2L45,47.1
	c-1.8,1.5-3.8,2.7-6.1,3.5v4.9c0,0.5-0.4,1-0.9,1.1c-3.6,0.8-7.4,0.8-11.1,0c-0.5-0.1-0.9-0.5-0.9-1.1v-4.9c-2.3-0.8-4.4-2-6.2-3.5
	l-4.3,2.4c-0.4,0.3-1,0.3-1.4-0.1c-2.6-2.7-4.5-6-5.5-9.6c-0.1-0.5,0.1-0.9,0.5-1.2l4.4-2.3c-0.4-2.3-0.4-4.7,0-7L9.2,27
	c-0.5-0.2-0.8-0.9-0.5-1.4c1.1-3.5,3.1-6.7,5.6-9.3c0.3-0.4,1-0.5,1.4-0.2l4.3,2.4c1.8-1.5,3.8-2.7,6-3.5v-4.9c0-0.5,0.4-1,0.9-1.1
	c3.6-0.8,7.4-0.8,11.1,0c0.6,0.1,1,0.5,1,1.1V15c2.2,0.8,4.3,2,6.1,3.5l4.3-2.4c0.4-0.3,1-0.3,1.4,0.1c2.6,2.7,4.5,6,5.5,9.6
	c0.1,0.5-0.1,0.9-0.5,1.2l-4.3,2.4C51.9,31.7,51.9,34.1,51.5,36.3L51.5,36.3L51.5,36.3z M39.8,32.8c0-4.2-3.5-7.5-7.7-7.5
	s-7.7,3.4-7.7,7.5s3.5,7.5,7.7,7.5h0.1C36.4,40.3,39.8,36.9,39.8,32.8z"/>
</svg>
