<?xml version="1.0" encoding="utf-8"?>
<!-- Generator: Adobe Illustrator 22.0.1, SVG Export Plug-In . SVG Version: 6.00 Build 0)  -->
<svg version="1.1" id="feedback" xmlns="http://www.w3.org/2000/svg" xmlns:xlink="http://www.w3.org/1999/xlink" x="0px" y="0px"
	 viewBox="0 0 512 512" style="enable-background:new 0 0 512 512;" xml:space="preserve">
<style type="text/css">
	.st0{fill:#CC3333;}
</style>
<path class="st0" d="M168,232c-35.3,0-64,28.7-64,64s28.7,64,64,64s64-28.7,64-64S203.3,232,168,232z M168,344
	c-26.5,0-48-21.5-48-48s21.5-48,48-48s48,21.5,48,48S194.5,344,168,344z"/>
<path class="st0" d="M168,200c-52.9,0-96,43.1-96,96c0,26.5,10.8,50.5,28.2,67.9L57.6,432h49l21.4,53.5l37.5-93.7
	c0.8,0,1.7,0.1,2.5,0.1c3.5,0,6.9-0.2,10.4-0.6l37.6,94.1l21.4-53.5h49l-45.8-73.4c14.6-16.8,23.4-38.7,23.4-62.6
	C264,243.1,220.9,200,168,200L168,200z M128,442.5L117.4,416h-31l26.1-41.8c10.7,7.6,23,13.2,36.4,15.9L128,442.5z M88,296
	c0-44.1,35.9-80,80-80s80,35.9,80,80s-35.9,80-80,80S88,340.1,88,296z M226.6,416L216,442.5l-21.7-54.2c12.8-3.7,24.6-9.8,34.6-18.1
	l28.7,45.9L226.6,416z"/>
<path class="st0" d="M255.3,106.2l3,3.4c3.6,4.1,7.9,7.4,12.8,9.7l4.4,2.1l12.5-9.5l12.6,9.5l4.4-2.1c4.8-2.3,9.1-5.6,12.8-9.7
	l3-3.4l-4.8-15.3l8.1-6.1l8.1,6.1l-4.8,15.3l3,3.4c3.6,4.1,7.9,7.4,12.8,9.7l4.4,2.1l12.5-9.5l12.6,9.5l4.4-2.1
	c4.8-2.3,9.1-5.6,12.8-9.7l3-3.4l-4.8-15.3l8.1-6.1l8.1,6.1l-4.8,15.3l3,3.4c3.6,4.1,7.9,7.4,12.8,9.7l4.4,2.1l12.5-9.5l12.6,9.5
	l4.4-2.1c4.8-2.3,9.1-5.6,12.8-9.7l3-3.4l-4.8-15.3l12.5-9.4l-0.5-4.5c-0.5-4.7-2.5-10.3-6-16.7l-2.3-4.2l-14.4,0.1l-4.8-14.3
	l-4.5-0.9c-5.3-1.1-10.6-1.1-15.9,0l-4.6,0.9L414.8,56L399.5,56l-2.3,4.2c-0.6,1-1.1,2.2-1.6,3.4c-0.5-1.1-1.1-2.2-1.7-3.4l-2.3-4.2
	l-14.4,0.1l-4.8-14.3l-4.5-0.9c-5.3-1.1-10.6-1.1-15.9,0l-4.5,0.9L342.8,56L327.5,56l-2.3,4.2c-0.6,1-1.1,2.2-1.6,3.4
	c-0.5-1.1-1.1-2.2-1.7-3.4l-2.3-4.2l-14.4,0.1l-4.8-14.3l-4.5-0.9c-5.3-1.1-10.6-1.1-15.9,0l-4.5,0.9L270.8,56L255.5,56l-2.3,4.2
	c-2.6,4.7-4.6,11.1-5.2,16.7l-0.5,4.5l12.5,9.4L255.3,106.2z M409.5,72l16.9,0.1l5.3-16.1c0.2,0,0.4,0,0.7,0l5.4,16.1L454,72
	c0.4,0.9,0.7,1.7,1,2.5l-13.7,10.3l5.3,17.1c-0.2,0.2-0.4,0.3-0.6,0.5l-14-10.6l-14,10.6c-0.2-0.2-0.4-0.3-0.6-0.5l5.3-17.1
	l-13.9-10.5C409,73.6,409.2,72.8,409.5,72z M337.5,72l16.9,0.1l5.3-16.1c0.2,0,0.4,0,0.7,0l5.4,16.1L382,72c0.4,0.9,0.7,1.7,1,2.5
	l-13.7,10.3l5.3,17.1c-0.2,0.2-0.4,0.3-0.6,0.5l-14-10.6l-14,10.6c-0.2-0.2-0.4-0.3-0.6-0.5l5.3-17.1l-13.9-10.5
	C337,73.6,337.2,72.8,337.5,72z M265.5,72l16.9,0.1l5.3-16.1c0.2,0,0.4,0,0.7,0l5.4,16.1L310,72c0.4,0.9,0.7,1.7,1,2.5l-13.7,10.3
	l5.3,17.1c-0.2,0.2-0.4,0.3-0.6,0.5l-14-10.6l-14,10.6c-0.2-0.2-0.4-0.3-0.6-0.5l5.3-17.1l-13.9-10.5C265,73.6,265.2,72.8,265.5,72z
	"/>
<path class="st0" d="M480,152c13.2,0,24-10.8,24-24V32c0-13.2-10.8-24-24-24H240c-13.2,0-24,10.8-24,24v24.2
	C202.6,46.1,186,40,168,40c-44.1,0-80,35.9-80,80v48c-26.9,0.2-49.5,20.3-52.7,47.1l-27,229.3c-0.2,2.1-0.4,4.2-0.4,6.2
	C8,480.1,31.9,504,61.3,504h213.3c29.4,0,53.3-23.9,53.3-53.3c0-2.1-0.1-4.2-0.4-6.2l-4.3-36.4h10.8l4.2,2.1
	c7.7,3.9,16.4,5.9,25.1,5.9H480c13.2,0,24-10.8,24-24c0-6.2-2.4-11.7-6.2-16c3.8-4.3,6.2-9.8,6.2-16s-2.4-11.7-6.2-16
	c3.8-4.3,6.2-9.8,6.2-16s-2.4-11.7-6.2-16c3.8-4.3,6.2-9.8,6.2-16c0-13.2-10.8-24-24-24h-40c-4.4,0-8-3.6-8-8v-54.1
	c0-13.7-5.3-26.6-15-36.3c-3.6-3.6-8.5-5.7-13.7-5.7c-10.6,0-19.3,8.7-19.3,19.3V224c0,27.4-13.6,52.8-36.4,68c-4,2.6-8.6,4-13.3,4
	h-24.1l-9.5-80.9c-3.1-26.8-25.8-46.9-52.7-47.1v-16L480,152z M240,24h240c4.4,0,8,3.6,8,8v96c0,4.4-3.6,8-8,8H248v-16
	c0-17.9-6-34.4-16-47.8V32C232,27.6,235.6,24,240,24z M168,56c35.3,0,64,28.7,64,64v48h-16v-48c0-26.5-21.5-48-48-48s-48,21.5-48,48
	v48h-16v-48C104,84.7,132.7,56,168,56z M200,168h-64v-48c0-17.6,14.4-32,32-32s32,14.4,32,32V168z M334.3,312
	c7.9,0,15.6-2.3,22.2-6.7c27.2-18.2,43.5-48.5,43.5-81.3v-36.7c0-2.7,3.8-4.2,5.7-2.3c6.7,6.7,10.3,15.5,10.3,25V264
	c0,13.2,10.8,24,24,24h40c4.4,0,8,3.6,8,8s-3.6,8-8,8h-8v16h8c4.4,0,8,3.6,8,8s-3.6,8-8,8h-8v16h8c4.4,0,8,3.6,8,8s-3.6,8-8,8h-8v16
	h8c4.4,0,8,3.6,8,8s-3.6,8-8,8H363.3c-6.2,0-12.4-1.5-17.9-4.2l-7.6-3.8h-16.4l-9.4-80H334.3z M284.8,217l27,229.3
	c0.2,1.4,0.3,2.9,0.3,4.4c0,20.6-16.8,37.3-37.3,37.3H61.3C40.8,488,24,471.2,24,450.7c0-1.5,0.1-2.9,0.3-4.4l27-229.3
	c2.2-18.8,18.2-33,37.1-33h159.4C266.6,184,282.6,198.2,284.8,217L284.8,217z"/>
</svg>
