<?xml version="1.0" standalone="no"?>
<!DOCTYPE svg PUBLIC "-//W3C//DTD SVG 20010904//EN"
 "http://www.w3.org/TR/2001/REC-SVG-20010904/DTD/svg10.dtd">
<svg version="1.0" xmlns="http://www.w3.org/2000/svg"
 width="1203.000000pt" height="1189.000000pt" viewBox="0 0 1203.000000 1189.000000"
 preserveAspectRatio="xMidYMid meet" id="logo">
<metadata>
Created by potrace 1.15, written by Peter Selinger 2001-2017
</metadata>
<g transform="translate(0.000000,1189.000000) scale(0.100000,-0.100000)"
fill="#000000" stroke="none">
<path d="M5710 11210 c-535 -39 -1086 -160 -1555 -341 -291 -113 -587 -259
-863 -427 -51 -32 -107 -65 -125 -75 -18 -10 -48 -31 -67 -46 -19 -15 -46 -34
-60 -41 -14 -7 -93 -64 -177 -126 -257 -191 -524 -431 -704 -632 -57 -64 -115
-127 -129 -141 -93 -94 -292 -356 -435 -571 -437 -660 -717 -1398 -829 -2182
-36 -251 -46 -373 -53 -648 -36 -1476 533 -2883 1587 -3930 419 -416 913 -765
1446 -1021 586 -282 1161 -439 1864 -511 165 -17 755 -17 920 0 369 38 751
107 980 177 526 161 815 281 1205 503 656 371 1266 916 1693 1512 65 90 172
249 172 255 0 3 22 38 48 78 43 64 92 147 142 242 180 338 257 511 365 820
464 1324 379 2802 -235 4080 -197 411 -518 900 -764 1165 -23 25 -94 104 -158
175 -358 399 -880 799 -1409 1078 -618 327 -1298 528 -2019 597 -153 15 -684
21 -840 10z m830 -595 c968 -97 1865 -477 2625 -1113 128 -108 454 -437 567
-572 478 -577 811 -1234 982 -1940 25 -101 64 -300 72 -356 l6 -51 -98 -62
c-55 -34 -153 -97 -219 -141 -211 -138 -356 -230 -365 -230 -5 0 -11 8 -14 18
-5 15 -35 21 -196 42 -189 23 -191 24 -208 52 -9 16 -26 31 -37 33 -11 3 -117
14 -235 25 -118 11 -249 24 -290 29 -48 5 -80 5 -88 -2 -9 -7 -18 -2 -34 18
-26 33 -80 57 -111 50 -19 -5 -26 0 -39 28 -35 72 -120 111 -192 87 -34 -11
-38 -10 -72 19 -39 35 -78 40 -125 15 -28 -14 -32 -14 -56 3 -52 38 -89 53
-128 53 -48 0 -128 -36 -178 -80 l-37 -32 -48 50 c-55 59 -90 72 -128 47 -52
-34 -59 -71 -58 -291 l0 -200 -129 -44 c-70 -24 -178 -65 -239 -91 l-111 -48
-66 68 c-156 160 -320 178 -683 74 -16 -5 -18 5 -18 105 0 63 -5 122 -12 137
-6 14 -8 28 -5 32 4 3 68 9 143 11 l136 5 76 89 c43 49 99 122 125 161 27 40
57 81 66 92 10 11 30 42 45 69 16 26 37 57 47 67 10 10 19 25 19 33 0 7 11 25
24 39 13 14 34 47 47 74 12 26 29 54 36 61 7 7 13 19 13 26 0 7 12 30 26 51
14 21 27 46 29 54 2 9 19 43 39 75 20 33 36 68 36 78 0 10 4 18 9 18 7 0 61
108 61 123 0 4 -14 22 -31 42 l-32 36 24 102 c32 138 32 334 1 450 -58 213
-187 378 -397 508 -99 61 -207 103 -350 137 -96 22 -132 26 -285 25 -189 0
-295 -17 -445 -70 -166 -60 -381 -194 -392 -245 -5 -25 -10 -28 -47 -28 -108
0 -415 -43 -581 -81 l-91 -20 4 -34 4 -34 -118 -36 c-182 -57 -432 -158 -587
-237 -586 -301 -968 -728 -1138 -1274 -70 -227 -98 -408 -106 -681 -9 -335 20
-605 107 -1003 l32 -145 -37 -132 -37 -132 -43 -21 c-45 -22 -60 -50 -50 -93
4 -19 -8 -30 -97 -86 -164 -103 -404 -273 -549 -388 -139 -111 -365 -330 -409
-395 -14 -21 -29 -37 -35 -35 -14 4 -123 223 -194 390 -595 1402 -484 3015
297 4317 464 775 1140 1406 1940 1811 584 296 1179 459 1857 509 165 12 587 4
775 -15z m135 -1984 l40 -7 -80 -18 c-284 -63 -579 -205 -810 -390 -38 -30
-73 -52 -76 -48 -12 13 -52 132 -46 138 3 3 23 -4 46 -15 22 -12 42 -21 45
-21 3 0 -11 46 -30 103 l-35 102 28 22 c15 13 30 23 33 23 3 0 29 -38 58 -85
30 -47 56 -85 60 -85 3 0 24 20 47 43 104 109 246 193 383 227 81 19 260 26
337 11z m135 -115 c285 -52 502 -251 566 -521 18 -75 23 -239 10 -317 l-7 -48
-52 31 c-181 107 -617 293 -638 272 -4 -4 -83 -199 -175 -431 l-168 -424 -28
34 c-183 214 -340 443 -426 619 -34 70 -62 134 -62 143 0 27 65 161 114 235
206 309 539 466 866 407z m-1228 -298 c2 -62 1 -116 -2 -120 -5 -7 -510 -62
-515 -56 -6 5 -46 230 -43 234 2 2 31 -31 63 -72 66 -84 68 -84 80 11 l7 49
34 -54 c19 -30 38 -56 43 -58 4 -1 12 35 17 80 l9 83 60 6 c33 3 101 6 152 7
l91 2 4 -112z m-702 -188 c0 -3 -44 -25 -98 -49 -354 -159 -695 -383 -907
-596 -413 -413 -593 -901 -598 -1622 -1 -123 -5 -222 -8 -220 -15 5 -199 143
-199 148 0 3 32 1 71 -4 39 -5 73 -6 76 -3 3 3 -20 50 -51 105 -31 54 -56 102
-56 105 0 3 27 6 60 6 33 0 60 3 60 6 0 3 -21 74 -46 156 -25 82 -44 152 -41
155 3 2 19 -3 37 -12 18 -9 34 -15 36 -12 2 2 -11 64 -31 136 -19 73 -35 135
-35 139 0 3 20 -14 45 -38 25 -24 45 -40 45 -35 0 6 -11 58 -24 118 -13 59
-19 107 -14 107 5 0 23 -7 39 -16 17 -8 33 -14 35 -11 3 2 -2 71 -10 153 -8
81 -14 150 -12 151 1 2 25 -28 52 -67 27 -38 51 -70 55 -70 3 0 -5 57 -17 128
-12 70 -20 129 -18 131 3 3 29 -20 60 -50 l55 -54 -7 140 -6 140 61 -60 61
-59 0 152 c0 84 3 152 8 152 4 -1 30 -35 57 -78 l50 -77 2 40 c2 22 6 73 9
114 l6 73 54 -53 54 -53 0 114 0 114 54 -53 53 -53 13 81 c7 45 16 81 19 81 4
0 22 -16 41 -35 19 -19 37 -32 40 -28 4 5 17 45 30 91 12 45 26 82 31 82 4 0
13 -16 19 -35 6 -19 15 -35 19 -35 5 0 18 38 31 85 13 47 26 85 31 85 4 0 20
-23 35 -50 15 -28 30 -47 34 -43 4 5 24 49 45 98 21 50 42 94 47 100 4 5 8
-29 8 -75 0 -84 1 -85 18 -62 10 13 38 61 63 108 24 46 47 84 50 84 4 0 10
-19 13 -42 12 -76 19 -75 70 12 25 44 50 80 54 80 5 0 14 -24 22 -52 l13 -53
36 79 37 79 19 -42 c10 -23 22 -44 26 -47 4 -2 15 20 25 48 9 29 19 57 21 61
4 7 73 -81 73 -93z m760 -29 c0 -13 -26 -33 -85 -67 -88 -49 -200 -142 -223
-186 -12 -22 -26 -27 -115 -42 -686 -117 -1073 -413 -1455 -1111 -110 -201
-247 -517 -358 -824 -40 -112 -53 -139 -59 -122 -14 45 -8 423 9 546 51 369
178 676 395 960 160 210 447 450 726 607 165 93 455 228 490 228 9 0 15 -10
15 -23 0 -35 6 -36 68 -21 169 41 378 71 510 73 74 1 82 -1 82 -18z m207 -368
c40 -50 73 -94 73 -97 0 -4 -60 43 -134 104 -74 60 -137 110 -140 110 -3 0 12
-23 34 -52 21 -29 37 -54 35 -56 -2 -2 -40 10 -85 28 -45 17 -84 30 -85 28 -2
-2 46 -66 106 -142 60 -76 109 -141 109 -143 0 -7 -23 9 -193 136 -92 68 -167
128 -167 133 0 15 110 127 148 150 19 12 51 27 70 34 l36 12 60 -77 c33 -42
93 -117 133 -168z m1254 98 c121 -61 284 -161 359 -220 23 -19 24 -21 8 -37
-16 -16 -20 -14 -80 33 -87 69 -222 158 -353 233 -186 107 -159 103 66 -9z
m-451 -97 c-37 -152 -80 -399 -80 -454 0 -37 -15 -63 -42 -72 -18 -6 2 -48 53
-108 33 -39 224 -218 295 -276 12 -10 8 -10 -13 3 -46 27 -452 337 -453 345 0
4 51 142 114 305 62 164 121 319 131 346 10 26 20 46 22 44 2 -2 -10 -62 -27
-133z m409 25 c99 -53 186 -112 296 -202 75 -61 74 -56 11 -191 l-43 -91 -94
190 -94 190 -70 42 c-38 23 -74 42 -80 42 -5 0 -35 -40 -66 -88 l-57 -88 110
-264 c60 -145 119 -289 130 -320 l21 -55 -24 -37 c-13 -20 -27 -37 -31 -37 -3
0 -26 15 -50 34 -24 19 -121 91 -215 161 -136 99 -173 131 -173 149 0 28 226
574 248 599 27 30 78 21 181 -34z m-1796 -104 c111 -34 319 -162 481 -297 l28
-24 -173 0 c-230 1 -394 -28 -569 -101 -590 -243 -929 -892 -930 -1779 0 -248
22 -469 76 -757 l26 -137 -57 -185 c-33 -105 -63 -185 -70 -185 -56 0 -382
138 -566 241 -173 95 -349 213 -349 232 0 7 20 64 44 127 48 127 142 411 236
710 106 338 246 751 313 921 64 162 157 372 163 366 2 -1 -28 -142 -66 -312
-39 -171 -70 -314 -69 -320 0 -5 11 13 26 40 462 904 876 1363 1316 1459 81
18 84 18 140 1z m607 -121 c250 -297 606 -583 958 -769 72 -39 132 -73 132
-76 0 -4 -17 -26 -38 -49 l-38 -44 -65 32 c-241 120 -572 409 -820 717 -103
128 -213 275 -205 275 2 0 36 -38 76 -86z m78 -380 c45 -48 82 -90 82 -95 0
-4 -25 1 -56 11 -163 56 -403 65 -569 20 -429 -115 -772 -531 -909 -1103 -58
-240 -80 -557 -57 -817 19 -216 17 -209 68 -231 161 -69 353 -33 631 118 46
25 82 39 82 32 0 -20 -79 -161 -148 -264 l-67 -99 -80 -34 c-127 -54 -282
-108 -382 -132 -64 -15 -94 -27 -97 -39 -3 -9 -21 -99 -41 -201 -21 -102 -41
-189 -46 -194 -14 -15 -159 22 -159 41 0 8 25 97 56 199 l56 184 -26 133 c-54
274 -76 491 -76 741 1 847 356 1494 945 1721 181 70 314 93 545 94 l165 1 83
-86z m457 -377 c55 -49 137 -113 183 -143 45 -30 82 -57 82 -59 0 -2 -21 -13
-46 -24 -45 -21 -47 -21 -73 -2 -82 60 -301 306 -361 406 -13 22 -30 51 -39
65 -8 14 23 -15 70 -64 46 -49 129 -130 184 -179z m-640 218 c108 -14 234 -70
360 -160 113 -80 193 -161 220 -220 78 -175 137 -565 181 -1197 l7 -97 -47
-53 c-26 -29 -63 -85 -83 -125 -30 -60 -36 -83 -37 -140 0 -37 3 -81 7 -97 8
-28 13 -23 116 135 60 90 119 170 132 177 18 9 37 10 76 3 29 -6 124 -16 210
-22 87 -7 159 -13 161 -14 1 -1 -4 -55 -13 -119 -35 -268 -4 -528 87 -729 17
-37 29 -69 26 -72 -7 -7 -303 -43 -418 -50 -328 -20 -699 75 -875 225 -284
241 -516 715 -804 1645 -66 213 -68 222 -60 283 19 139 87 291 180 403 50 59
154 149 174 149 7 0 24 -125 44 -317 80 -779 138 -1118 237 -1405 104 -300
271 -540 468 -672 151 -102 327 -138 576 -117 122 10 310 37 318 46 2 2 -11
28 -28 58 l-31 55 -232 0 c-260 -1 -345 10 -452 61 -75 35 -129 81 -206 178
-199 250 -329 638 -413 1233 -46 325 -119 940 -113 946 9 9 116 22 152 18 17
-2 53 -6 80 -9z m2573 -355 c17 -11 32 -25 32 -32 0 -7 -63 -71 -140 -142
l-140 -129 1 -101 c1 -94 15 -232 18 -176 0 14 8 80 17 147 l17 121 159 146
c138 126 164 146 192 146 34 0 86 -32 86 -53 0 -6 -57 -69 -126 -138 l-126
-126 -14 -124 c-20 -171 -14 -188 15 -39 28 144 15 126 213 311 122 114 129
119 170 119 47 -1 68 -12 87 -48 17 -32 6 -47 -144 -201 l-122 -126 -23 -123
c-12 -68 -20 -125 -18 -127 2 -3 29 54 58 125 l53 129 122 121 c82 80 129 120
144 120 30 0 77 -25 85 -45 16 -43 3 -74 -101 -227 l-106 -157 -8 -115 c-21
-308 -100 -526 -246 -674 -41 -41 -76 -73 -78 -70 -2 2 11 44 30 93 36 96 51
178 41 221 l-7 26 -27 -40 c-51 -76 -120 -148 -164 -171 l-44 -24 -115 115
c-62 63 -133 125 -156 138 -32 18 -43 30 -43 47 0 13 -7 162 -16 331 -9 169
-13 334 -10 366 7 70 40 147 85 198 39 44 208 173 253 193 44 19 57 18 96 -5z
m2466 -47 c14 -72 27 -236 20 -243 -5 -4 -110 -31 -234 -59 -124 -28 -252 -58
-285 -66 -33 -7 -61 -12 -63 -11 -1 2 66 53 150 115 84 61 207 151 273 200 66
49 123 90 127 90 3 1 9 -11 12 -26z m-1401 -275 c198 -27 227 -33 221 -47 -37
-85 -38 -159 -4 -238 l19 -43 -22 -5 c-12 -3 -143 -27 -292 -55 -305 -55 -285
-57 -304 32 -22 98 -6 270 33 363 l16 38 53 -7 c28 -4 155 -21 280 -38z m1439
-124 c2 -58 -1 -108 -5 -111 -11 -7 -534 26 -565 35 -16 5 57 31 260 93 156
48 288 87 295 88 8 1 13 -31 15 -105z m-929 20 c59 -4 107 -8 107 -10 0 -2 -8
-19 -17 -38 -14 -30 -15 -41 -4 -77 7 -22 11 -42 9 -44 -2 -1 -69 -5 -150 -9
l-148 -6 -15 30 c-19 38 -19 79 2 131 l16 41 46 -5 c25 -4 94 -9 154 -13z
m-2822 -78 c63 -22 171 -87 198 -119 11 -14 7 -17 -31 -27 -24 -6 -48 -13 -55
-15 -7 -2 -35 3 -64 11 -28 9 -53 14 -55 11 -2 -2 25 -27 60 -56 l64 -53 33
-115 c18 -63 32 -128 32 -144 0 -42 -29 -69 -74 -69 -50 0 -95 39 -126 110
-28 62 -49 90 -70 90 -7 0 -42 -18 -76 -39 -107 -67 -192 -85 -278 -59 l-39
11 0 202 0 203 48 20 c47 19 128 47 167 55 11 3 61 5 110 6 70 0 104 -4 156
-23z m739 -140 l0 -123 -67 -28 c-116 -49 -237 -112 -288 -151 l-49 -37 -29
34 c-28 34 -97 166 -97 187 0 16 100 82 199 131 89 45 309 123 323 115 4 -3 8
-60 8 -128z m3008 36 c11 -7 13 -36 10 -125 -1 -63 -6 -118 -10 -122 -4 -4
-109 36 -235 88 -341 143 -363 153 -358 158 9 9 580 10 593 1z m-531 -258
c131 -96 297 -219 370 -272 153 -112 143 -89 113 -278 -315 -1964 -1776 -3511
-3714 -3934 -77 -16 -150 -30 -161 -30 -18 0 -96 120 -430 663 l-409 662 -7
77 c-4 42 -15 100 -24 130 -50 154 -209 419 -374 623 -44 55 -81 104 -81 108
0 5 34 70 76 145 101 180 296 526 300 531 2 2 34 -10 71 -27 139 -64 449 -92
806 -73 120 6 263 16 318 22 117 13 103 21 221 -118 64 -76 73 -83 107 -83
130 0 469 297 729 638 139 182 220 337 227 436 4 47 9 56 65 115 183 191 274
395 295 664 l7 87 61 0 62 -1 27 -44 c16 -26 37 -47 51 -50 14 -4 78 7 149 24
68 17 137 31 153 31 17 0 107 14 202 32 164 31 172 33 178 57 4 14 12 29 18
33 7 4 89 8 184 8 l171 0 239 -176z m232 45 l303 -101 -6 -87 c-10 -133 -17
-182 -26 -179 -5 2 -71 52 -147 113 -76 60 -203 161 -283 224 -174 137 -167
131 -155 131 6 0 147 -46 314 -101z m-2695 -120 c3 -34 6 -80 6 -103 0 -40 -2
-42 -53 -64 -127 -57 -526 -206 -533 -199 -2 2 12 11 31 21 19 11 37 27 40 37
5 15 16 19 53 19 55 0 117 27 152 64 21 23 25 38 26 94 l1 67 124 62 c68 35
128 63 135 63 6 0 14 -26 18 -61z m-788 -120 c15 -15 46 -35 70 -43 49 -16
154 -94 154 -113 0 -17 -40 -53 -66 -59 -11 -3 -38 -4 -60 -2 -36 3 -44 10
-105 90 l-67 87 10 48 c14 74 19 82 29 49 4 -16 20 -42 35 -57z m409 -16 c25
-10 45 -22 45 -26 0 -20 -23 -48 -50 -62 -49 -25 -110 -19 -166 17 -41 27 -46
33 -28 36 37 5 59 39 58 88 l-1 43 49 -38 c26 -22 68 -47 93 -58z m-499 70
c-22 -77 -20 -87 43 -195 34 -57 61 -109 61 -116 0 -24 -47 -43 -102 -40 l-53
3 -47 95 c-27 52 -48 106 -48 119 0 34 37 89 83 122 46 33 71 38 63 12z m-186
-111 c0 -21 11 -67 26 -101 14 -35 24 -64 22 -66 -2 -1 -37 14 -78 34 -79 38
-89 53 -76 107 7 26 59 64 89 64 13 0 17 -8 17 -38z m1234 -169 c56 -54 95
-118 96 -155 0 -14 -213 -312 -303 -425 -27 -35 16 -1 150 118 270 240 266
242 63 -42 -101 -140 -203 -280 -228 -312 -24 -32 -42 -60 -40 -62 2 -2 62 46
133 107 333 284 445 378 449 378 7 0 -97 -190 -146 -265 -69 -108 -198 -263
-288 -348 -44 -41 -140 -121 -213 -176 l-132 -100 -38 37 c-67 64 -161 188
-210 275 -101 179 -141 365 -149 686 l-3 114 125 42 c137 47 286 106 473 189
l122 54 40 -29 c22 -16 66 -55 99 -86z m-2803 -765 c17 -67 17 -207 0 -278 -8
-30 -31 -94 -53 -141 -35 -76 -44 -88 -70 -93 -59 -12 -395 -6 -522 9 -71 8
-131 17 -133 18 -4 4 101 364 108 372 3 3 41 14 85 26 64 17 163 52 274 97 21
8 -65 -98 -162 -201 -46 -48 -78 -87 -72 -87 7 0 43 9 80 21 154 47 333 164
405 263 18 25 36 46 40 46 4 0 13 -24 20 -52z m502 -140 c-16 -29 -102 -187
-192 -350 l-164 -297 -45 -7 c-67 -10 -351 3 -466 21 -483 76 -1003 289 -1471
602 -60 40 -107 73 -104 73 4 0 83 -38 175 -84 186 -92 368 -173 484 -217 41
-15 118 -44 170 -64 206 -79 525 -159 735 -185 100 -13 370 -16 427 -5 39 7
38 7 232 259 22 28 58 74 80 102 23 28 68 86 100 128 33 42 61 76 63 76 3 0
-8 -24 -24 -52z m-2363 -190 c129 -85 246 -161 260 -168 l25 -14 -30 -7 c-16
-4 -79 -15 -140 -24 -139 -21 -349 -73 -484 -120 -356 -124 -637 -326 -806
-578 l-52 -78 -45 68 c-25 38 -64 99 -87 137 l-42 68 27 42 c46 71 243 257
384 362 156 117 332 233 545 359 83 48 159 94 170 101 11 7 25 12 30 10 6 -2
116 -73 245 -158z m307 -325 c5 -18 344 -779 409 -922 l34 -74 -73 -141 c-88
-171 -214 -369 -388 -611 -179 -249 -163 -233 -202 -210 -116 67 -357 254
-562 437 -196 174 -544 547 -545 583 0 16 193 227 301 329 144 138 257 227
415 332 125 83 338 201 392 217 9 3 55 21 102 41 97 41 108 43 117 19z m738
-236 c127 -31 317 -77 423 -102 106 -26 192 -48 190 -50 -2 -2 -102 1 -222 6
-120 5 -221 7 -223 5 -2 -2 20 -44 51 -93 282 -456 688 -729 1195 -803 45 -7
79 -16 74 -21 -15 -15 -220 -78 -325 -100 -193 -40 -422 -29 -608 31 -404 129
-780 524 -1072 1125 -32 66 -58 125 -58 131 0 7 67 -6 173 -31 94 -24 276 -68
402 -98z"/>
<path d="M5215 7880 c-49 -10 -136 -30 -192 -44 -122 -31 -123 -31 -123 -6 0
11 -6 20 -14 20 -20 0 -212 -91 -329 -156 -114 -64 -245 -149 -356 -233 -93
-69 -284 -253 -341 -326 l-43 -56 30 -36 c16 -20 33 -38 39 -40 5 -1 28 24 51
56 70 96 200 237 292 318 173 152 367 260 604 338 119 39 355 95 403 95 16 0
84 68 84 84 0 7 2 8 -105 -14z"/>
<path d="M3745 6980 c-62 -93 -179 -324 -167 -328 5 -1 34 7 65 18 52 20 58
25 106 107 l52 86 -3 96 -3 96 -50 -75z"/>
<path d="M3519 6498 c-24 -81 -70 -301 -64 -307 2 -2 10 9 16 25 7 16 41 92
77 169 35 77 66 145 68 151 3 6 -6 14 -19 18 -14 3 -32 9 -40 12 -12 4 -21
-11 -38 -68z"/>
<path d="M6801 7320 l-34 -79 49 -78 c26 -43 80 -127 119 -188 40 -60 85 -132
100 -159 l29 -49 17 22 c17 21 16 25 -40 154 -32 72 -89 202 -126 287 -38 85
-71 158 -74 162 -3 4 -21 -29 -40 -72z"/>
</g>
</svg>
