<?xml version="1.0" encoding="utf-8"?>
<!-- Generator: Adobe Illustrator 22.0.1, SVG Export Plug-In . SVG Version: 6.00 Build 0)  -->
<svg version="1.1" id="parking" xmlns="http://www.w3.org/2000/svg" xmlns:xlink="http://www.w3.org/1999/xlink" x="0px" y="0px"
	 viewBox="0 0 512 512" style="enable-background:new 0 0 512 512;" xml:space="preserve">
<style type="text/css">
	.st0{fill:#CC3333;}
</style>
<path class="st0" d="M227,351.2H181c-7.4,0-13.5,6-13.5,13.4v46.1c0,7.4,6,13.4,13.5,13.4H227c7.4,0,13.4-6,13.4-13.4v-46.1
	C240.5,357.2,234.4,351.2,227,351.2z M225.5,409.1h-42.9v-42.9h42.9V409.1z"/>
<path class="st0" d="M494.1,353.1h-53.6c0,0-0.1,0-0.1,0h-92.7c0,0-0.1,0-0.1,0h-70.8v-10c0-15.3-4.6-30.1-13.3-42.8
	c-2.3-3.4-7-4.3-10.4-1.9c-3.4,2.3-4.3,7-1.9,10.4c7,10.2,10.7,22.1,10.7,34.3v143.3c0,5.9-4.8,10.7-10.7,10.7h-36.9
	c0.3-1.3,0.4-2.6,0.4-4v-19.7c0-10.5-8.5-19-19-19H151V308.2c11.5-16.4,29.9-26.1,49.9-26.1c9.9,0,19.7,2.5,28.4,7.1
	c3.7,2,8.2,0.6,10.1-3.1c2-3.7,0.6-8.2-3.1-10.1c-10.9-5.8-23.2-8.9-35.5-8.9c-18.6,0-36.2,6.8-49.9,18.8v-40.8
	c55.5-12.3,97.1-62,97.1-121.1C248.1,55.7,192.5,0,124.1,0S0,55.7,0,124.1c0,59.1,41.6,108.7,97.1,121.1v105.3
	c0,4.1,3.4,7.5,7.5,7.5s7.5-3.4,7.5-7.5V247.5c4,0.4,8,0.6,12,0.6c4,0,8-0.2,12-0.6v206.8h-24V385c0-4.1-3.4-7.5-7.5-7.5
	s-7.5,3.4-7.5,7.5v69.3H58c-10.5,0-19,8.5-19,19V493c0,10.5,8.5,19,19,19h137.7h55.4c14.2,0,25.7-11.5,25.7-25.7v-68.6h49.1
	c0,0,0,0,0,0c0,0,0,0,0,0h92.7c0,0,0,0,0,0c0,0,0,0,0,0h75.3c9.9,0,17.9-8,17.9-17.9V371C512,361.1,504,353.1,494.1,353.1
	L494.1,353.1z M15,124.1C15,63.9,63.9,15,124.1,15s109.1,48.9,109.1,109.1c0,53.9-39.3,98.8-90.8,107.5c-0.1,0-0.2,0-0.4,0.1
	c-5.8,1-11.8,1.5-17.9,1.5C63.9,233.1,15,184.2,15,124.1z M54,493v-19.7c0-2.2,1.8-4,4-4h137.7c2.1,0,4,1.8,4,4V493c0,2.2-1.8,4-4,4
	H58C55.8,497,54,495.2,54,493z M337.4,402.7l15.1-34.6h76.4l-15.1,34.6H337.4z M276.8,368.1h59.3l-15.1,34.6h-44.3L276.8,368.1z
	 M497,399.8c0,1.6-1.3,2.9-2.9,2.9h-63.9l15.1-34.6h48.8c1.6,0,2.9,1.3,2.9,2.9L497,399.8L497,399.8z"/>
<path class="st0" d="M155.8,100.6c0-7.6-2.5-14.1-7.6-19.5c-5.1-5.5-11.6-8.3-19.2-8.3h-16.8c-2.1,0-4.1,0-6.2,0.9
	c-1.6,0.7-5.4,3-5.4,8.8v35c0,3.1,1,5.6,2.8,7.4c2.5,2.5,5.6,2.7,7.8,2.7c0.3,0,0.6,0,0.8,0c0.3,0,0.6,0,0.9,0h15.8
	c7.2,0,13.7-2.8,18.9-8C153.1,114.4,155.8,108,155.8,100.6L155.8,100.6z M137.1,109.1c-2.4,2.5-5.1,3.6-8.3,3.6h-13.2V87.9H129
	c3.4,0,6,1.1,8.2,3.5c2.4,2.6,3.5,5.5,3.5,9.2C140.8,103.9,139.6,106.6,137.1,109.1z"/>
<path class="st0" d="M173.6,140.7c10.4-10.3,15.7-23.9,15.7-40.3c0-16.6-5.6-30.4-16.5-40.9c-10.9-10.4-25-15.7-42.1-15.7H92.5
	c-6.7,0-12.5,2.4-17.3,7.1c-4.6,4.7-7.1,10.7-7.1,17.4V181c0,6.6,2.4,12.6,7,17.2c4.6,4.6,10.3,7,16.7,7s12.1-2.4,16.7-7
	c4.6-4.6,7-10.4,7-16.7v-25.2h17C149.4,156.2,163.2,151,173.6,140.7L173.6,140.7z M108.2,141.2c-4.1,0-7.5,3.4-7.5,7.5v32.7
	c0,2.4-0.8,4.3-2.6,6.1c-1.8,1.8-3.7,2.6-6.1,2.6s-4.3-0.8-6.1-2.6c-1.8-1.8-2.6-3.9-2.6-6.5V68.3c0-2.8,0.9-5,2.7-6.8
	c1.9-1.9,4-2.7,6.7-2.7h38.1c13.2,0,23.6,3.8,31.7,11.5c8,7.7,11.9,17.6,11.9,30.1c0,12.5-3.7,22.2-11.2,29.7
	c-7.6,7.5-17.5,11.2-30.4,11.2L108.2,141.2L108.2,141.2z"/>
</svg>
