<?xml version="1.0" encoding="utf-8"?>
<!-- Generator: Adobe Illustrator 22.0.1, SVG Export Plug-In . SVG Version: 6.00 Build 0)  -->
<svg version="1.1" id="spray-color" xmlns="http://www.w3.org/2000/svg" xmlns:xlink="http://www.w3.org/1999/xlink" x="0px" y="0px"
	 viewBox="0 0 480 480" style="enable-background:new 0 0 480 480;" xml:space="preserve">
<style type="text/css">
	.st0{fill:#CC3333;}
</style>
<g>
	<g>
		<path class="st0" d="M304,360H16v-88c0-13.3,10.7-24,24-24h136v-16H60.9l51.6-103.2c2.7-5.4,8.2-8.9,14.3-8.8H296v-16H126.8
			c-12.1,0-23.2,6.8-28.6,17.7L43.1,232H40c-22.1,0-40,17.9-40,40v184c0,13.3,10.7,24,24,24h64c13.3,0,24-10.7,24-24v-48h192v-16H40
			c-1.5,0-3-0.2-4.4-0.4c-0.4-0.1-0.9-0.2-1.3-0.3c-1-0.2-1.9-0.5-2.9-0.9c-0.4-0.2-0.9-0.4-1.3-0.6c-0.9-0.4-1.8-0.9-2.7-1.5
			c-0.3-0.2-0.7-0.4-1-0.6c-1.1-0.8-2.2-1.7-3.2-2.7c-0.2-0.2-0.3-0.4-0.5-0.5c-0.8-0.8-1.5-1.7-2.2-2.7c-0.3-0.4-0.5-0.8-0.7-1.2
			c-0.5-0.8-1-1.7-1.4-2.6c-0.2-0.4-0.4-0.9-0.6-1.3c-0.1-0.2-0.2-0.5-0.2-0.8H304V360z M80,408h16v48c0,4.4-3.6,8-8,8h-8V408z
			 M48,408h16v56H48V408z M19,401.9c1.3,0.8,2.7,1.6,4.2,2.3c0.8,0.4,1.6,0.7,2.4,1c1.5,0.6,3.1,1.1,4.7,1.5
			c0.6,0.1,1.1,0.4,1.7,0.5V464h-8c-4.4,0-8-3.6-8-8v-56c0.3,0.2,0.7,0.4,1,0.6C17.6,401.1,18.3,401.5,19,401.9z"/>
	</g>
</g>
<g>
	<g>
		<path class="st0" d="M168,280h136v-16H168c-13.3,0-24,10.7-24,24v32c0,13.3,10.7,24,24,24h136v-16H168c-4.4,0-8-3.6-8-8v-8h144
			v-16H160v-8C160,283.6,163.6,280,168,280z"/>
	</g>
</g>
<g>
	<g>
		<path class="st0" d="M104,264H56c-13.3,0-24,10.7-24,24v32c0,13.3,10.7,24,24,24h48c13.3,0,24-10.7,24-24v-32
			C128,274.7,117.3,264,104,264z M112,320c0,4.4-3.6,8-8,8H56c-4.4,0-8-3.6-8-8v-32c0-4.4,3.6-8,8-8h48c4.4,0,8,3.6,8,8V320z"/>
	</g>
</g>
<g>
	<g>
		<path class="st0" d="M480,224v-24c0-4.4-3.6-8-8-8h-34.2l-6.2-18.5c-1.1-3.3-4.1-5.5-7.6-5.5h-24v-12.7
			c24.1-9.9,39.9-33.3,40-59.3V8c0-4.4-3.6-8-8-8H320c-4.4,0-8,3.6-8,8v88c0.1,26,15.9,49.4,40,59.3V168h-48v-8h-16v11.1l-27.6,13.8
			c-2.7,1.4-4.4,4.1-4.4,7.2v16c0,3,1.7,5.8,4.4,7.2l27.6,13.8V240h16v-8h45.4l-8.7,30.4c-1.6,5.7-6.8,9.6-12.7,9.6v16
			c13,0,24.5-8.7,28.1-21.2l0.8-2.8h27l14.4,72H376v16h25.4l6.7,33.6c0.8,3.7,4,6.4,7.8,6.4h16v16c0,4.4-3.6,8-8,8h-72
			c-17.7,0-32,14.3-32,32s14.3,32,32,32h128v-16H352c-8.8,0-16-7.2-16-16s7.2-16,16-16h72c13.3,0,24-10.7,24-24v-16h16
			c4.4,0,8-3.6,8-8c0-0.4,0-0.9-0.1-1.3l-23-138.2l26.7-13.3C478.3,229.8,480,227,480,224z M288,211.1l-16-8v-6.1l16-8V211.1z
			 M328,16h96v16h-96V16z M328,96V48h96v48c-0.1,21.2-14,39.8-34.3,46c-3.4,1-5.7,4.1-5.7,7.7V168h-16v-18.4c0-3.5-2.3-6.7-5.7-7.7
			C342,135.8,328.1,117.2,328,96z M361.5,248l4.6-16h11.4l3.2,16H361.5z M464,219.1l-27.6,13.8c-3.1,1.6-4.9,5-4.3,8.5l1.1,6.7H416
			v16h19.9l2.7,16H424v16h17.2l2.7,16H432v16h14.6l2.7,16H440v16h11.9l2.7,16h-32l-30.7-153.6c-0.8-3.7-4-6.4-7.8-6.4h-80v-32h114.2
			l6.2,18.5c1.1,3.3,4.1,5.5,7.6,5.5h32V219.1z"/>
	</g>
</g>
<g>
	<g>
		<rect x="184" y="192" class="st0" width="56" height="16"/>
	</g>
</g>
<g>
	<g>
		
			<rect x="208" y="137.2" transform="matrix(0.4472 -0.8944 0.8944 0.4472 -27.3166 283.8971)" class="st0" width="16" height="53.7"/>
	</g>
</g>
<g>
	<g>
		
			<rect x="189.1" y="228" transform="matrix(0.8944 -0.4472 0.4472 0.8944 -82.7428 121.4938)" class="st0" width="53.7" height="16"/>
	</g>
</g>
<g>
	<g>
		<rect x="152" y="192" class="st0" width="16" height="16"/>
	</g>
</g>
<g>
	<g>
		<rect x="160" y="136" class="st0" width="16" height="16"/>
	</g>
</g>
<g>
	<g>
		<rect x="136" y="160" class="st0" width="16" height="16"/>
	</g>
</g>
<g>
	<g>
		<path class="st0" d="M360,96h-16c0,17.7,14.3,32,32,32v-16C367.2,112,360,104.8,360,96z"/>
	</g>
</g>
<g>
	<g>
		<rect x="344" y="64" class="st0" width="16" height="16"/>
	</g>
</g>
</svg>
