<svg viewBox="0 0 50 50" xmlns="http://www.w3.org/2000/svg" xmlns:xlink="http://www.w3.org/1999/xlink"><style>:root>svg{display:none}:root>svg:target{display:block}</style><svg viewBox="0 0 284.9 284.9" id="angle-down"><path d="M282 76.5l-14.2-14.3a9 9 0 00-13.1 0L142.5 174.4 30.3 62.2a9 9 0 00-13.2 0L3 76.5a9 9 0 000 13.1l133 133a9 9 0 0013.1 0l133-133a9 9 0 000-13z"/></svg><svg viewBox="0 0 284.9 284.9" id="angle-left"><path d="M110.5 142.5L222.7 30.3a9 9 0 000-13.2L208.4 3A9 9 0 00202 0a9 9 0 00-6.6 2.9l-133 133a9 9 0 000 13.1l133 133a9 9 0 0013.1 0l14.3-14.2a9 9 0 000-13.1L110.5 142.5z"/></svg><svg viewBox="0 0 284.9 284.9" id="angle-right"><path d="M222.7 135.9l-133-133A9 9 0 0083 0a9 9 0 00-6.6 2.9L62.2 17a9 9 0 000 13.2l112.2 112.2L62.2 254.7a9 9 0 000 13.1l14.3 14.3a9 9 0 0013.2 0l133-133a9 9 0 000-13.2z"/></svg><svg id="blog" x="0" y="0" viewBox="0 0 512 512" xml:space="preserve"><path class="dst0" d="M502 125a10 10 0 0010-10V10a10 10 0 00-10-10H10A10 10 0 000 10v492a10 10 0 0010 10h470.2a31.8 31.8 0 0031.8-31.8V202.4c0-1.5-.3-3-1-4.4l-40-82c-1.7-3.4-5.2-5.6-9-5.6s-7.3 2.2-9 5.6l-40 82c-.7 1.4-1 2.9-1 4.4v277.9c0 4.1.8 8.1 2.3 11.8H20V91.9l1 .1h471v23a10 10 0 0010 10zm-40 18.2l24 49.2h-48l24-49.2zm-30 69.2h60v223.5h-24.3v-86.5c0-5.5-4.5-10-10-10s-10 4.5-10 10v86.5H432V212.4zm0 243.5h60v24.4c0 6.5-5.3 11.8-11.8 11.8h-36.5c-6.5 0-11.8-5.3-11.8-11.8v-24.4zM21 72l-1 .1V20h472v52H21z"/><path class="dst0" d="M448 36H222.1c-5.5 0-10 4.5-10 10s4.5 10 10 10H448c5.5 0 10-4.5 10-10s-4.5-10-10-10zM111.1 38.9A9.9 9.9 0 00104 36c-2.6 0-5.2 1.1-7.1 2.9-1.8 1.9-2.9 4.5-2.9 7.1s1.1 5.2 2.9 7.1 4.4 2.9 7.1 2.9 5.2-1.1 7.1-2.9c1.9-1.9 2.9-4.4 2.9-7.1s-1.1-5.2-2.9-7.1zM71.1 38.9C69.2 37.1 66.6 36 64 36s-5.2 1.1-7.1 2.9C55.1 40.8 54 43.4 54 46s1.1 5.2 2.9 7.1S61.4 56 64 56a9.9 9.9 0 0010-10c0-2.7-1.1-5.2-2.9-7.1zM151.1 38.9c-1.9-1.9-4.4-2.9-7.1-2.9s-5.2 1.1-7.1 2.9-2.9 4.5-2.9 7.1 1.1 5.2 2.9 7.1 4.4 2.9 7.1 2.9 5.2-1.1 7.1-2.9c1.9-1.9 2.9-4.4 2.9-7.1s-1.1-5.2-2.9-7.1zM204 120H64a10 10 0 00-10 10v144a10 10 0 0010 10h140a10 10 0 0010-10V130a10 10 0 00-10-10zm-10 144H74V140h120v124zM457.7 308.3a10 10 0 00-10 10v.1c0 5.5 4.5 10 10 10s10-4.5 10-10v-.1a10 10 0 00-10-10zM379.3 120H251c-5.5 0-10 4.5-10 10s4.5 10 10 10h128.3a10 10 0 0010-10 10 10 0 00-10-10zM379.3 168H251c-5.5 0-10 4.5-10 10s4.5 10 10 10h128.3c5.5 0 10-4.5 10-10s-4.5-10-10-10zM379.3 216H251c-5.5 0-10 4.5-10 10s4.5 10 10 10h128.3c5.5 0 10-4.5 10-10s-4.5-10-10-10zM300.2 264H251c-5.5 0-10 4.5-10 10s4.5 10 10 10h49.2c5.5 0 10-4.5 10-10s-4.5-10-10-10zM379.3 332H258.5c-5.5 0-10 4.5-10 10s4.5 10 10 10h120.8c5.5 0 10-4.5 10-10s-4.5-10-10-10zM204 332h-92.9c-5.5 0-10 4.5-10 10s4.5 10 10 10H204c5.5 0 10-4.5 10-10s-4.5-10-10-10zM71.1 334.9c-1.9-1.9-4.4-2.9-7.1-2.9s-5.2 1.1-7.1 2.9-2.9 4.5-2.9 7.1 1.1 5.2 2.9 7.1A9.9 9.9 0 0064 352a9.9 9.9 0 0010-10c0-2.7-1.1-5.2-2.9-7.1zM379.3 380H258.5c-5.5 0-10 4.5-10 10s4.5 10 10 10h120.8c5.5 0 10-4.5 10-10s-4.5-10-10-10zM204 380H64c-5.5 0-10 4.5-10 10s4.5 10 10 10h140c5.5 0 10-4.5 10-10s-4.5-10-10-10zM379.3 428H258.5c-5.5 0-10 4.5-10 10s4.5 10 10 10h120.8c5.5 0 10-4.5 10-10s-4.5-10-10-10zM204 428H64c-5.5 0-10 4.5-10 10s4.5 10 10 10h140c5.5 0 10-4.5 10-10s-4.5-10-10-10z"/><path class="dst0" d="M172.2 232.4l-29-68.7c-1.6-3.7-5.2-6.1-9.2-6.1s-7.6 2.4-9.2 6.1l-29 68.7a10 10 0 0018.4 7.8l3.6-8.6h32.3l3.6 8.6a10 10 0 0013.1 5.3c5.2-2.1 7.6-8 5.4-13.1zm-45.9-20.8l7.7-18.3 7.7 18.3h-15.4z"/></svg><svg id="card" x="0" y="0" viewBox="0 0 512 512" xml:space="preserve"><path class="est0" d="M467.7 84H44.2A44.4 44.4 0 000 128.3v255.2a44.4 44.4 0 0044.2 44.3h423.5a44.4 44.4 0 0044.3-44.3V128.3A44.4 44.4 0 00467.7 84zm29.1 299.4c0 16-13 29-29 29H44.2c-16 0-29-13-29-29V128.3c0-16 13-29 29-29h423.5c16 0 29 13 29 29v255.1z"/><path class="est0" d="M227.6 144.8H51.2a7.6 7.6 0 00-7.6 7.6v18.2a7.6 7.6 0 1015.2 0V160H220v185.5H58.8V201.1a7.6 7.6 0 10-15.2 0v152.1c0 4.2 3.4 7.6 7.6 7.6h176.4c4.2 0 7.6-3.4 7.6-7.6V152.4c0-4.2-3.4-7.6-7.6-7.6zM462.8 162.5H272.2a7.6 7.6 0 100 15.2h190.6a7.6 7.6 0 100-15.2zM462.8 217.6h-42.6a7.6 7.6 0 100 15.2h42.6a7.6 7.6 0 100-15.2zM272.2 232.8h117.6a7.6 7.6 0 100-15.2H272.2a7.6 7.6 0 100 15.2zM462.8 272.8H272.2a7.6 7.6 0 100 15.2h190.6a7.6 7.6 0 100-15.2zM375.6 327.9H272.2a7.6 7.6 0 100 15.2h103.4a7.6 7.6 0 100-15.2z"/><path class="est0" d="M86.2 328.8a7.6 7.6 0 1015.2 0 38 38 0 0176 0 7.6 7.6 0 1015.2 0 53.3 53.3 0 00-25.8-45.6 53.1 53.1 0 10-54.8 0 53.3 53.3 0 00-25.8 45.6zm15.2-91.2a38 38 0 1176 0 38 38 0 01-76 0z"/></svg><svg viewBox="0 0 65 65" id="cog"><path d="M51.5 36.3l4.3 2.4c.5.2.7.8.5 1.3a24 24 0 01-5.6 9.3 1 1 0 01-1.4.2L45 47.1a19.4 19.4 0 01-6.1 3.5v4.9c0 .5-.4 1-.9 1.1a26 26 0 01-11.1 0 1 1 0 01-.9-1.1v-4.9a20 20 0 01-6.2-3.5l-4.3 2.4a1 1 0 01-1.4-.1c-2.6-2.7-4.5-6-5.5-9.6-.1-.5.1-.9.5-1.2l4.4-2.3c-.4-2.3-.4-4.7 0-7L9.2 27c-.5-.2-.8-.9-.5-1.4a24 24 0 015.6-9.3 1 1 0 011.4-.2l4.3 2.4c1.8-1.5 3.8-2.7 6-3.5v-4.9c0-.5.4-1 .9-1.1A26 26 0 0138 9c.6.1 1 .5 1 1.1V15c2.2.8 4.3 2 6.1 3.5l4.3-2.4a1 1 0 011.4.1c2.6 2.7 4.5 6 5.5 9.6.1.5-.1.9-.5 1.2l-4.3 2.4a20 20 0 010 6.9zm-11.7-3.5c0-4.2-3.5-7.5-7.7-7.5s-7.7 3.4-7.7 7.5 3.5 7.5 7.7 7.5h.1c4.2 0 7.6-3.4 7.6-7.5z"/></svg><svg viewBox="0 0 551.1 551.1" id="export"><path d="M465 172.2h-51.7v34.5h34.5v310H103.3v-310h34.5v-34.5H86c-9.5 0-17.2 7.7-17.2 17.3v344.4c0 9.5 7.7 17.2 17.2 17.2h379c9.4 0 17.1-7.7 17.1-17.2V189.5c0-9.6-7.7-17.3-17.2-17.3z"/><path d="M258.3 66v244h34.5V66l74 73.9 24.3-24.4L275.6 0 160 115.5l24.3 24.4z"/></svg><svg aria-hidden="true" data-prefix="fab" data-icon="facebook-square" viewBox="-32 0 512 512" id="facebook"><path fill="currentColor" d="M400 32H48A48 48 0 000 80v352a48 48 0 0048 48h137.3V327.7h-63V256h63v-54.6c0-62.2 37-96.5 93.6-96.5 27.2 0 55.5 4.8 55.5 4.8v61h-31.2c-30.8 0-40.4 19.1-40.4 38.8V256h68.7l-11 71.7h-57.8V480H400a48 48 0 0048-48V80a48 48 0 00-48-48z"/></svg><svg id="faq" x="0" y="0" viewBox="0 0 512 512" xml:space="preserve"><path class="ist0" d="M346 319a10 10 0 00-10 10v69a50 50 0 01-50 50H178a10 10 0 00-10 10v19.9L144.1 454a10 10 0 00-9.2-6H70a50 50 0 01-50-50V244a50 50 0 0150-50h101c5.5 0 10-4.5 10-10s-4.5-10-10-10H70a70 70 0 00-70 70v154a70 70 0 0070 70h59.9l41.1 41.1a10 10 0 0017.1-7.1v-34h98a70 70 0 0070-70v-69c-.1-5.5-4.6-10-10.1-10z"/><path class="ist0" d="M366.7 0h-25.3C261.2 0 196 65.2 196 145.3s65.2 145.3 145.3 145.3h25.3c12.5 0 24.9-1.6 36.9-4.7l37.4 37.4a10 10 0 0017.1-7.1v-57.9c15.8-12.8 29-29 38.2-47.1A145.5 145.5 0 00366.7 0zM442 245.5a10 10 0 00-4 8v38.6l-24.5-24.5a10 10 0 00-10-2.5 124 124 0 01-36.9 5.5h-25.3c-69.1 0-125.3-56.2-125.3-125.3S272.2 20 341.3 20h25.3A125.5 125.5 0 01442 245.5z"/><path class="ist0" d="M399 109.4a42.5 42.5 0 00-84.7 3c0 5.5 4.5 10 10 10s10-4.5 10-10c0-6.3 2.5-12.1 7.1-16.3a22.4 22.4 0 0137.5 14.8c.8 11.1-6.5 21-17.4 23.4a19 19 0 00-14.9 18.5v24a10 10 0 0010 10 10 10 0 0010-10v-23.2a42.2 42.2 0 0032.4-44.2zM363.9 209.3c-1.9-1.9-4.4-2.9-7.1-2.9s-5.2 1.1-7.1 2.9a9.9 9.9 0 00-2.9 7.1 9.9 9.9 0 0010 10 9.9 9.9 0 0010-10c0-2.7-1.1-5.3-2.9-7.1zM275 310H64c-5.5 0-10 4.5-10 10s4.5 10 10 10h211c5.5 0 10-4.5 10-10s-4.5-10-10-10zM282.1 368.9c-1.9-1.9-4.4-2.9-7.1-2.9s-5.2 1.1-7.1 2.9c-1.9 1.9-2.9 4.4-2.9 7.1s1.1 5.2 2.9 7.1c1.9 1.9 4.4 2.9 7.1 2.9s5.2-1.1 7.1-2.9a9.9 9.9 0 002.9-7.1c0-2.6-1.1-5.2-2.9-7.1zM235.7 366H64c-5.5 0-10 4.5-10 10s4.5 10 10 10h171.7c5.5 0 10-4.5 10-10s-4.5-10-10-10zM210 254H64c-5.5 0-10 4.5-10 10s4.5 10 10 10h146c5.5 0 10-4.5 10-10s-4.5-10-10-10z"/></svg><svg id="feedback" x="0" y="0" viewBox="0 0 512 512" xml:space="preserve"><path class="jst0" d="M168 232a64 64 0 10.1 128.1A64 64 0 00168 232zm0 112a48 48 0 110-96 48 48 0 010 96z"/><path class="jst0" d="M168 200a96.2 96.2 0 00-67.8 163.9L57.6 432h49l21.4 53.5 37.5-93.7 2.5.1c3.5 0 6.9-.2 10.4-.6l37.6 94.1 21.4-53.5h49l-45.8-73.4a95.1 95.1 0 0023.4-62.6 96.1 96.1 0 00-96-95.9zm-40 242.5L117.4 416h-31l26.1-41.8a95.4 95.4 0 0036.4 15.9L128 442.5zM88 296a80.1 80.1 0 01160 0 80.1 80.1 0 01-160 0zm138.6 120L216 442.5l-21.7-54.2a95.6 95.6 0 0034.6-18.1l28.7 45.9-31-.1zM255.3 106.2l3 3.4c3.6 4.1 7.9 7.4 12.8 9.7l4.4 2.1 12.5-9.5 12.6 9.5 4.4-2.1c4.8-2.3 9.1-5.6 12.8-9.7l3-3.4-4.8-15.3 8.1-6.1 8.1 6.1-4.8 15.3 3 3.4c3.6 4.1 7.9 7.4 12.8 9.7l4.4 2.1 12.5-9.5 12.6 9.5 4.4-2.1c4.8-2.3 9.1-5.6 12.8-9.7l3-3.4-4.8-15.3 8.1-6.1 8.1 6.1-4.8 15.3 3 3.4c3.6 4.1 7.9 7.4 12.8 9.7l4.4 2.1 12.5-9.5 12.6 9.5 4.4-2.1c4.8-2.3 9.1-5.6 12.8-9.7l3-3.4-4.8-15.3 12.5-9.4-.5-4.5a46.5 46.5 0 00-6-16.7l-2.3-4.2-14.4.1-4.8-14.3-4.5-.9a38.7 38.7 0 00-15.9 0l-4.6.9-4.9 14.1h-15.3l-2.3 4.2c-.6 1-1.1 2.2-1.6 3.4l-1.7-3.4-2.3-4.2-14.4.1-4.8-14.3-4.5-.9a38.7 38.7 0 00-15.9 0l-4.5.9-4.7 14.2h-15.3l-2.3 4.2c-.6 1-1.1 2.2-1.6 3.4l-1.7-3.4-2.3-4.2-14.4.1-4.8-14.3-4.5-.9a38.7 38.7 0 00-15.9 0l-4.5.9-4.7 14.2h-15.3l-2.3 4.2a47.2 47.2 0 00-5.2 16.7l-.5 4.5 12.5 9.4-4.7 15.4zM409.5 72l16.9.1 5.3-16.1h.7l5.4 16.1L454 72l1 2.5-13.7 10.3 5.3 17.1-.6.5-14-10.6-14 10.6-.6-.5 5.3-17.1-13.9-10.5.7-2.3zm-72 0l16.9.1 5.3-16.1h.7l5.4 16.1L382 72l1 2.5-13.7 10.3 5.3 17.1-.6.5-14-10.6-14 10.6-.6-.5 5.3-17.1-13.9-10.5.7-2.3zm-72 0l16.9.1 5.3-16.1h.7l5.4 16.1L310 72l1 2.5-13.7 10.3 5.3 17.1-.6.5-14-10.6-14 10.6-.6-.5 5.3-17.1-13.9-10.5.7-2.3z"/><path class="jst0" d="M480 152a24 24 0 0024-24V32a24 24 0 00-24-24H240a24 24 0 00-24 24v24.2A80.1 80.1 0 0088 120v48a53.4 53.4 0 00-52.7 47.1l-27 229.3a53.5 53.5 0 0053 59.6h213.3a53.3 53.3 0 0052.9-59.5l-4.3-36.4H334l4.2 2.1a55.8 55.8 0 0025.1 5.9H480a24 24 0 0017.8-40c3.8-4.3 6.2-9.8 6.2-16s-2.4-11.7-6.2-16c3.8-4.3 6.2-9.8 6.2-16s-2.4-11.7-6.2-16a24 24 0 00-17.8-40h-40a8 8 0 01-8-8V210a51 51 0 00-15-36.3 19.4 19.4 0 00-33 13.6V224a81.5 81.5 0 01-36.4 68c-4 2.6-8.6 4-13.3 4h-24.1l-9.5-80.9A53.3 53.3 0 00248 168v-16h232zM240 24h240a8 8 0 018 8v96a8 8 0 01-8 8H248v-16c0-17.9-6-34.4-16-47.8V32a8 8 0 018-8zm-72 32a64 64 0 0164 64v48h-16v-48a48 48 0 00-96 0v48h-16v-48a64 64 0 0164-64zm32 112h-64v-48c0-17.6 14.4-32 32-32s32 14.4 32 32v48zm134.3 144a40 40 0 0022.2-6.7A97.6 97.6 0 00400 224v-36.7c0-2.7 3.8-4.2 5.7-2.3a35 35 0 0110.3 25v54a24 24 0 0024 24h40c4.4 0 8 3.6 8 8s-3.6 8-8 8h-8v16h8c4.4 0 8 3.6 8 8s-3.6 8-8 8h-8v16h8c4.4 0 8 3.6 8 8s-3.6 8-8 8h-8v16h8c4.4 0 8 3.6 8 8s-3.6 8-8 8H363.3a41 41 0 01-17.9-4.2l-7.6-3.8h-16.4l-9.4-80h22.3zm-49.5-95l27 229.3a37.4 37.4 0 01-37 41.7H61.3a37.4 37.4 0 01-37-41.7l27-229.3a37.4 37.4 0 0137.1-33h159.4a37.4 37.4 0 0137 33z"/></svg><svg viewBox="0 0 32 32" id="folder-open"><path d="M26 30l6-16H6L0 30zM4 12L0 30V4h9l4 4h13v4z"/></svg><svg aria-hidden="true" data-prefix="fab" data-icon="instagram" viewBox="-32 0 512 512" id="instagram"><path fill="currentColor" d="M224.1 141c-63.6 0-114.9 51.3-114.9 114.9s51.3 114.9 114.9 114.9S339 319.5 339 255.9 287.7 141 224.1 141zm0 189.6a74.8 74.8 0 11.1-149.3 74.8 74.8 0 01-.1 149.3zm146.4-194.3a26.7 26.7 0 11-53.6 0 26.8 26.8 0 0153.6 0zm76.1 27.2c-1.7-35.9-9.9-67.7-36.2-93.9-26.2-26.2-58-34.4-93.9-36.2-37-2.1-147.9-2.1-184.9 0-35.8 1.7-67.6 9.9-93.9 36.1s-34.4 58-36.2 93.9c-2.1 37-2.1 147.9 0 184.9 1.7 35.9 9.9 67.7 36.2 93.9s58 34.4 93.9 36.2c37 2.1 147.9 2.1 184.9 0 35.9-1.7 67.7-9.9 93.9-36.2 26.2-26.2 34.4-58 36.2-93.9 2.1-37 2.1-147.8 0-184.8zM398.8 388a75.6 75.6 0 01-42.6 42.6c-29.5 11.7-99.5 9-132.1 9s-102.7 2.6-132.1-9A75.6 75.6 0 0149.4 388c-11.7-29.5-9-99.5-9-132.1s-2.6-102.7 9-132.1A75.6 75.6 0 0192 81.2c29.5-11.7 99.5-9 132.1-9s102.7-2.6 132.1 9a75.6 75.6 0 0142.6 42.6c11.7 29.5 9 99.5 9 132.1s2.7 102.7-9 132.1z"/></svg><svg viewBox="0 -9.3 1203 1207.61" id="logo"><path d="M571 68a555.4 555.4 0 00-155.5 34.1 553.4 553.4 0 00-86.3 42.7 360 360 0 01-12.5 7.5 62 62 0 00-6.7 4.6 338.5 338.5 0 00-23.7 16.7 507 507 0 00-70.4 63.2 503.6 503.6 0 00-56.4 71.2 528.6 528.6 0 00-88.2 283A533.2 533.2 0 00230 984a535.3 535.3 0 00331 153.2c16.5 1.7 75.5 1.7 92 0a581.7 581.7 0 0098-17.7c52.6-16.1 81.5-28.1 120.5-50.3A542 542 0 001040.8 918a425.7 425.7 0 0022-33.3c4.3-6.4 9.2-14.7 14.2-24.2a536.3 536.3 0 00-63.4-606.5l-15.8-17.5a530 530 0 00-140.9-107.8A539.3 539.3 0 00655 69a904 904 0 00-84-1zm83 59.5a480.1 480.1 0 01262.5 111.3 729.5 729.5 0 0156.7 57.2 480.6 480.6 0 01105.4 229.6l.6 5.1-9.8 6.2c-5.5 3.4-15.3 9.7-21.9 14.1a561.2 561.2 0 01-36.5 23c-.5 0-1.1-.8-1.4-1.8-.5-1.5-3.5-2.1-19.6-4.2-18.9-2.3-19.1-2.4-20.8-5.2-.9-1.6-2.6-3.1-3.7-3.3-1.1-.3-11.7-1.4-23.5-2.5l-29-2.9c-4.8-.5-8-.5-8.8.2-.9.7-1.8.2-3.4-1.8-2.6-3.3-8-5.7-11.1-5-1.9.5-2.6 0-3.9-2.8-3.5-7.2-12-11.1-19.2-8.7-3.4 1.1-3.8 1-7.2-1.9-3.9-3.5-7.8-4-12.5-1.5-2.8 1.4-3.2 1.4-5.6-.3-5.2-3.8-8.9-5.3-12.8-5.3-4.8 0-12.8 3.6-17.8 8l-3.7 3.2-4.8-5c-5.5-5.9-9-7.2-12.8-4.7-5.2 3.4-5.9 7.1-5.8 29.1v20l-12.9 4.4c-7 2.4-17.8 6.5-23.9 9.1l-11.1 4.8-6.6-6.8c-15.6-16-32-17.8-68.3-7.4-1.6.5-1.8-.5-1.8-10.5a53 53 0 00-1.2-13.7c-.6-1.4-.8-2.8-.5-3.2a92 92 0 0114.3-1.1l13.6-.5 7.6-8.9c4.3-4.9 9.9-12.2 12.5-16.1 2.7-4 5.7-8.1 6.6-9.2 1-1.1 3-4.2 4.5-6.9a51 51 0 014.7-6.7c1-1 1.9-2.5 1.9-3.3 0-.7 1.1-2.5 2.4-3.9 1.3-1.4 3.4-4.7 4.7-7.4 1.2-2.6 2.9-5.4 3.6-6.1.7-.7 1.3-1.9 1.3-2.6 0-.7 1.2-3 2.6-5.1 1.4-2.1 2.7-4.6 2.9-5.4.2-.9 1.9-4.3 3.9-7.5 2-3.3 3.6-6.8 3.6-7.8s.4-1.8.9-1.8c.7 0 6.1-10.8 6.1-12.3 0-.4-1.4-2.2-3.1-4.2l-3.2-3.6 2.4-10.2c3.2-13.8 3.2-33.4.1-45a84.2 84.2 0 00-39.7-50.8 114.7 114.7 0 00-63.5-16.2c-18.9 0-29.5 1.7-44.5 7-16.6 6-38.1 19.4-39.2 24.5-.5 2.5-1 2.8-4.7 2.8-10.8 0-41.5 4.3-58.1 8.1l-9.1 2 .4 3.4.4 3.4-11.8 3.6a438.2 438.2 0 00-58.7 23.7c-58.6 30.1-96.8 72.8-113.8 127.4-7 22.7-9.8 40.8-10.6 68.1-.9 33.5 2 60.5 10.7 100.3l3.2 14.5-3.7 13.2-3.7 13.2-4.3 2.1c-4.5 2.2-6 5-5 9.3.4 1.9-.8 3-9.7 8.6a725.8 725.8 0 00-54.9 38.8 322.4 322.4 0 00-40.9 39.5c-1.4 2.1-2.9 3.7-3.5 3.5-1.4-.4-12.3-22.3-19.4-39A478.3 478.3 0 01576.5 126c16.5-1.2 58.7-.4 77.5 1.5zm13.5 198.4l4 .7-8 1.8a205.2 205.2 0 00-81 39c-3.8 3-7.3 5.2-7.6 4.8a47.5 47.5 0 01-4.6-13.8c.3-.3 2.3.4 4.6 1.5 2.2 1.2 4.2 2.1 4.5 2.1.3 0-1.1-4.6-3-10.3l-3.5-10.2 2.8-2.2c1.5-1.3 3-2.3 3.3-2.3.3 0 2.9 3.8 5.8 8.5 3 4.7 5.6 8.5 6 8.5.3 0 2.4-2 4.7-4.3a82.7 82.7 0 0138.3-22.7c8.1-1.9 26-2.6 33.7-1.1zm13.5 11.5a69.4 69.4 0 0156.6 52.1c1.8 7.5 2.3 23.9 1 31.7l-.7 4.8-5.2-3.1c-18.1-10.7-61.7-29.3-63.8-27.2-.4.4-8.3 19.9-17.5 43.1l-16.8 42.4-2.8-3.4a321.2 321.2 0 01-42.6-61.9 104 104 0 01-6.2-14.3c0-2.7 6.5-16.1 11.4-23.5 20.6-30.9 53.9-46.6 86.6-40.7zm-122.8 29.8a70 70 0 01-.2 12c-.5.7-51 6.2-51.5 5.6-.6-.5-4.6-23-4.3-23.4.2-.2 3.1 3.1 6.3 7.2 6.6 8.4 6.8 8.4 8-1.1l.7-4.9 3.4 5.4c1.9 3 3.8 5.6 4.3 5.8.4.1 1.2-3.5 1.7-8l.9-8.3 6-.6a271 271 0 0115.2-.7l9.1-.2.4 11.2zM488 386a63 63 0 01-9.8 4.9c-35.4 15.9-69.5 38.3-90.7 59.6-41.3 41.3-59.3 90.1-59.8 162.2-.1 12.3-.5 22.2-.8 22-1.5-.5-19.9-14.3-19.9-14.8 0-.3 3.2-.1 7.1.4 3.9.5 7.3.6 7.6.3.3-.3-2-5-5.1-10.5a121 121 0 01-5.6-10.5c0-.3 2.7-.6 6-.6s6-.3 6-.6l-4.6-15.6c-2.5-8.2-4.4-15.2-4.1-15.5.3-.2 1.9.3 3.7 1.2 1.8.9 3.4 1.5 3.6 1.2.2-.2-1.1-6.4-3.1-13.6l-3.5-13.9c0-.3 2 1.4 4.5 3.8s4.5 4 4.5 3.5c0-.6-1.1-5.8-2.4-11.8a31.5 31.5 0 01-1.4-10.7c.5 0 2.3.7 3.9 1.6 1.7.8 3.3 1.4 3.5 1.1.3-.2-.2-7.1-1-15.3-.8-8.1-1.4-15-1.2-15.1.1-.2 2.5 2.8 5.2 6.7 2.7 3.8 5.1 7 5.5 7 .3 0-.5-5.7-1.7-12.8-1.2-7-2-12.9-1.8-13.1.3-.3 2.9 2 6 5l5.5 5.4-.7-14-.6-14 6.1 6 6.1 5.9v-15.2c0-8.4.3-15.2.8-15.2.4.1 3 3.5 5.7 7.8l5 7.7.2-4 .9-11.4.6-7.3 5.4 5.3 5.4 5.3v-22.8l5.4 5.3 5.3 5.3 1.3-8.1c.7-4.5 1.6-8.1 1.9-8.1.4 0 2.2 1.6 4.1 3.5 1.9 1.9 3.7 3.2 4 2.8.4-.5 1.7-4.5 3-9.1 1.2-4.5 2.6-8.2 3.1-8.2.4 0 1.3 1.6 1.9 3.5.6 1.9 1.5 3.5 1.9 3.5.5 0 1.8-3.8 3.1-8.5s2.6-8.5 3.1-8.5c.4 0 2 2.3 3.5 5 1.5 2.8 3 4.7 3.4 4.3.4-.5 2.4-4.9 4.5-9.8 2.1-5 4.2-9.4 4.7-10 .4-.5.8 2.9.8 7.5 0 8.4.1 8.5 1.8 6.2 1-1.3 3.8-6.1 6.3-10.8 2.4-4.6 4.7-8.4 5-8.4.4 0 1 1.9 1.3 4.2 1.2 7.6 1.9 7.5 7-1.2 2.5-4.4 5-8 5.4-8 .5 0 1.4 2.4 2.2 5.2l1.3 5.3 3.6-7.9 3.7-7.9 1.9 4.2a20 20 0 002.6 4.7c.4.2 1.5-2 2.5-4.8a83 83 0 012.1-6.1c.4-.7 7.3 8.1 7.3 9.3zm76 2.9c0 1.3-2.6 3.3-8.5 6.7a73.7 73.7 0 00-22.3 18.6c-1.2 2.2-2.6 2.7-11.5 4.2-68.6 11.7-107.3 41.3-145.5 111.1a647.6 647.6 0 00-35.8 82.4c-4 11.2-5.3 13.9-5.9 12.2-1.4-4.5-.8-42.3.9-54.6a196.7 196.7 0 0139.5-96c16-21 44.7-45 72.6-60.7 16.5-9.3 45.5-22.8 49-22.8.9 0 1.5 1 1.5 2.3 0 3.5.6 3.6 6.8 2.1 16.9-4.1 37.8-7.1 51-7.3 7.4-.1 8.2.1 8.2 1.8zm20.7 36.8c4 5 7.3 9.4 7.3 9.7 0 .4-6-4.3-13.4-10.4-7.4-6-13.7-11-14-11-.3 0 1.2 2.3 3.4 5.2 2.1 2.9 3.7 5.4 3.5 5.6-.2.2-4-1-8.5-2.8-4.5-1.7-8.4-3-8.5-2.8-.2.2 4.6 6.6 10.6 14.2s10.9 14.1 10.9 14.3c0 .7-2.3-.9-19.3-13.6a160.5 160.5 0 01-16.7-13.3c0-1.5 11-12.7 14.8-15a45 45 0 017-3.4l3.6-1.2 6 7.7 13.3 16.8zm125.4-9.8a263.7 263.7 0 0135.9 22c2.3 1.9 2.4 2.1.8 3.7-1.6 1.6-2 1.4-8-3.3a308.9 308.9 0 00-35.3-23.3c-18.6-10.7-15.9-10.3 6.6.9zm-45.1 9.7c-3.7 15.2-8 39.9-8 45.4 0 3.7-1.5 6.3-4.2 7.2-1.8.6.2 4.8 5.3 10.8 3.3 3.9 22.4 21.8 29.5 27.6 1.2 1 .8 1-1.3-.3a886.4 886.4 0 01-45.3-34.5c0-.4 5.1-14.2 11.4-30.5l13.1-34.6c1-2.6 2-4.6 2.2-4.4.2.2-1 6.2-2.7 13.3zm40.9-2.5c9.9 5.3 18.6 11.2 29.6 20.2 7.5 6.1 7.4 5.6 1.1 19.1l-4.3 9.1-9.4-19-9.4-19-7-4.2a44.5 44.5 0 00-8-4.2c-.5 0-3.5 4-6.6 8.8l-5.7 8.8 11 26.4c6 14.5 11.9 28.9 13 32l2.1 5.5-2.4 3.7c-1.3 2-2.7 3.7-3.1 3.7-.3 0-2.6-1.5-5-3.4l-21.5-16.1c-13.6-9.9-17.3-13.1-17.3-14.9 0-2.8 22.6-57.4 24.8-59.9 2.7-3 7.8-2.1 18.1 3.4zm-179.6 10.4c11.1 3.4 31.9 16.2 48.1 29.7l2.8 2.4h-17.3c-23-.1-39.4 2.8-56.9 10.1-59 24.3-92.9 89.2-93 177.9 0 24.8 2.2 46.9 7.6 75.7l2.6 13.7-5.7 18.5a85 85 0 01-7 18.5c-5.6 0-38.2-13.8-56.6-24.1-17.3-9.5-34.9-21.3-34.9-23.2a1704.5 1704.5 0 0028-83.7c10.6-33.8 24.6-75.1 31.3-92.1a310.4 310.4 0 0116.3-36.6c.2.1-2.8 14.2-6.6 31.2-3.9 17.1-7 31.4-6.9 32 0 .5 1.1-1.3 2.6-4 46.2-90.4 87.6-136.3 131.6-145.9 8.1-1.8 8.4-1.8 14-.1zm60.7 12.1c25 29.7 60.6 58.3 95.8 76.9 7.2 3.9 13.2 7.3 13.2 7.6a23 23 0 01-3.8 4.9l-3.8 4.4-6.5-3.2c-24.1-12-57.2-40.9-82-71.7a271.4 271.4 0 01-20.5-27.5c.2 0 3.6 3.8 7.6 8.6zm7.8 38a76 76 0 018.2 9.5c0 .4-2.5-.1-5.6-1.1a108.8 108.8 0 00-56.9-2c-42.9 11.5-77.2 53.1-90.9 110.3-5.8 24-8 55.7-5.7 81.7 1.9 21.6 1.7 20.9 6.8 23.1 16.1 6.9 35.3 3.3 63.1-11.8 4.6-2.5 8.2-3.9 8.2-3.2 0 2-7.9 16.1-14.8 26.4l-6.7 9.9-8 3.4a277.9 277.9 0 01-38.2 13.2c-6.4 1.5-9.4 2.7-9.7 3.9-.3.9-2.1 9.9-4.1 20.1a168.2 168.2 0 01-4.6 19.4c-1.4 1.5-15.9-2.2-15.9-4.1 0-.8 2.5-9.7 5.6-19.9l5.6-18.4-2.6-13.3a361.4 361.4 0 01-7.6-74.1c.1-84.7 35.6-149.4 94.5-172.1 18.1-7 31.4-9.3 54.5-9.4l16.5-.1 8.3 8.6zm45.7 37.7c5.5 4.9 13.7 11.3 18.3 14.3a81 81 0 018.2 5.9c0 .2-2.1 1.3-4.6 2.4-4.5 2.1-4.7 2.1-7.3.2-8.2-6-30.1-30.6-36.1-40.6l-3.9-6.5c-.8-1.4 2.3 1.5 7 6.4a350 350 0 0018.4 17.9zm-64-21.8c10.8 1.4 23.4 7 36 16a68.8 68.8 0 0122 22c7.8 17.5 13.7 56.5 18.1 119.7l.7 9.7-4.7 5.3a67.9 67.9 0 00-8.3 12.5 26 26 0 00-3.7 14c0 3.7.3 8.1.7 9.7.8 2.8 1.3 2.3 11.6-13.5 6-9 11.9-17 13.2-17.7 1.8-.9 3.7-1 7.6-.3 2.9.6 12.4 1.6 21 2.2a530 530 0 0116.1 1.4c.1.1-.4 5.5-1.3 11.9-3.5 26.8-.4 52.8 8.7 72.9 1.7 3.7 2.9 6.9 2.6 7.2a444 444 0 01-41.8 5c-32.8 2-69.9-7.5-87.5-22.5-28.4-24.1-51.6-71.5-80.4-164.5-6.6-21.3-6.8-22.2-6-28.3a84.1 84.1 0 0118-40.3c5-5.9 15.4-14.9 17.4-14.9.7 0 2.4 12.5 4.4 31.7 8 77.9 13.8 111.8 23.7 140.5 10.4 30 27.1 54 46.8 67.2 15.1 10.2 32.7 13.8 57.6 11.7 12.2-1 31-3.7 31.8-4.6.2-.2-1.1-2.8-2.8-5.8l-3.1-5.5h-23.2c-26 .1-34.5-1-45.2-6.1a54.3 54.3 0 01-20.6-17.8c-19.9-25-32.9-63.8-41.3-123.3-4.6-32.5-11.9-94-11.3-94.6a48.1 48.1 0 0123.2-.9zM833.8 535c1.7 1.1 3.2 2.5 3.2 3.2 0 .7-6.3 7.1-14 14.2l-14 12.9.1 10.1c.1 9.4 1.5 23.2 1.8 17.6 0-1.4.8-8 1.7-14.7l1.7-12.1 15.9-14.6C844 539 846.6 537 849.4 537c3.4 0 8.6 3.2 8.6 5.3 0 .6-5.7 6.9-12.6 13.8l-12.6 12.6-1.4 12.4c-2 17.1-1.4 18.8 1.5 3.9 2.8-14.4 1.5-12.6 21.3-31.1 12.2-11.4 12.9-11.9 17-11.9 4.7.1 6.8 1.2 8.7 4.8 1.7 3.2.6 4.7-14.4 20.1l-12.2 12.6-2.3 12.3c-1.2 6.8-2 12.5-1.8 12.7A78 78 0 00855 592l5.3-12.9 12.2-12.1c8.2-8 12.9-12 14.4-12 3 0 7.7 2.5 8.5 4.5 1.6 4.3.3 7.4-10.1 22.7l-10.6 15.7-.8 11.5c-2.1 30.8-10 52.6-24.6 67.4a45.3 45.3 0 01-7.8 7c-.2-.2 1.1-4.4 3-9.3a46.2 46.2 0 004.1-22.1l-.7-2.6-2.7 4a58.7 58.7 0 01-16.4 17.1l-4.4 2.4-11.5-11.5a118.5 118.5 0 00-15.6-13.8c-3.2-1.8-4.3-3-4.3-4.7l-1.6-33.1c-.9-16.9-1.3-33.4-1-36.6.7-7 4-14.7 8.5-19.8 3.9-4.4 20.8-17.3 25.3-19.3 4.4-1.9 5.7-1.8 9.6.5zm246.6 4.7a122 122 0 012 24.3c-.5.4-11 3.1-23.4 5.9l-28.5 6.6a46 46 0 01-6.3 1.1c-.1-.2 6.6-5.3 15-11.5l27.3-20c6.6-4.9 12.3-9 12.7-9 .3-.1.9 1.1 1.2 2.6zm-140.1 27.5c19.8 2.7 22.7 3.3 22.1 4.7a28 28 0 00-.4 23.8l1.9 4.3-2.2.5-29.2 5.5c-30.5 5.5-28.5 5.7-30.4-3.2-2.2-9.8-.6-27 3.3-36.3l1.6-3.8 5.3.7 28 3.8zm143.9 12.4c.2 5.8-.1 10.8-.5 11.1-1.1.7-53.4-2.6-56.5-3.5-1.6-.5 5.7-3.1 26-9.3 15.6-4.8 28.8-8.7 29.5-8.8.8-.1 1.3 3.1 1.5 10.5zm-92.9-2c5.9.4 10.7.8 10.7 1l-1.7 3.8c-1.4 3-1.5 4.1-.4 7.7.7 2.2 1.1 4.2.9 4.4l-15 .9-14.8.6-1.5-3c-1.9-3.8-1.9-7.9.2-13.1l1.6-4.1 4.6.5c2.5.4 9.4.9 15.4 1.3zm-282.2 7.8a65.7 65.7 0 0119.8 11.9c1.1 1.4.7 1.7-3.1 2.7l-5.5 1.5c-.7.2-3.5-.3-6.4-1.1-2.8-.9-5.3-1.4-5.5-1.1-.2.2 2.5 2.7 6 5.6l6.4 5.3 3.3 11.5a92.2 92.2 0 013.2 14.4c0 4.2-2.9 6.9-7.4 6.9-5 0-9.5-3.9-12.6-11-2.8-6.2-4.9-9-7-9a35 35 0 00-7.6 3.9c-10.7 6.7-19.2 8.5-27.8 5.9l-3.9-1.1v-40.5l4.8-2c4.7-1.9 12.8-4.7 16.7-5.5a93 93 0 0111-.6c7 0 10.4.4 15.6 2.3zm73.9 14v12.3l-6.7 2.8a162.3 162.3 0 00-28.8 15.1l-4.9 3.7-2.9-3.4a78.2 78.2 0 01-9.7-18.7c0-1.6 10-8.2 19.9-13.1 8.9-4.5 30.9-12.3 32.3-11.5.4.3.8 6 .8 12.8zm300.8-3.6c1.1.7 1.3 3.6 1 12.5a56 56 0 01-1 12.2c-.4.4-10.9-3.6-23.5-8.8-34.1-14.3-36.3-15.3-35.8-15.8.9-.9 58-1 59.3-.1zm-53.1 25.8l37 27.2c15.3 11.2 14.3 8.9 11.3 27.8A478 478 0 01691.5 1073c-1.8 0-9.6-12-43-66.3l-40.9-66.2-.7-7.7a82 82 0 00-2.4-13c-5-15.4-20.9-41.9-37.4-62.3-4.4-5.5-8.1-10.4-8.1-10.8 0-.5 3.4-7 7.6-14.5 10.1-18 29.6-52.6 30-53.1.2-.2 3.4 1 7.1 2.7 13.9 6.4 44.9 9.2 80.6 7.3 12-.6 26.3-1.6 31.8-2.2 11.7-1.3 10.3-2.1 22.1 11.8 6.4 7.6 7.3 8.3 10.7 8.3 13 0 46.9-29.7 72.9-63.8 13.9-18.2 22-33.7 22.7-43.6.4-4.7.9-5.6 6.5-11.5a101.3 101.3 0 0029.5-66.4l.7-8.7h6.1l6.2.1 2.7 4.4c1.6 2.6 3.7 4.7 5.1 5 1.4.4 7.8-.7 14.9-2.4 6.8-1.7 13.7-3.1 15.3-3.1 1.7 0 10.7-1.4 20.2-3.2 16.4-3.1 17.2-3.3 17.8-5.7.4-1.4 1.2-2.9 1.8-3.3.7-.4 8.9-.8 18.4-.8h17.1l23.9 17.6zm23.2-4.5l30.3 10.1-.6 8.7c-1 13.3-1.7 18.2-2.6 17.9-.5-.2-7.1-5.2-14.7-11.3l-28.3-22.4c-17.4-13.7-16.7-13.1-15.5-13.1.6 0 14.7 4.6 31.4 10.1zm-269.5 12c.3 3.4.6 8 .6 10.3 0 4-.2 4.2-5.3 6.4a581.4 581.4 0 01-53.3 19.9c-.2-.2 1.2-1.1 3.1-2.1 1.9-1.1 3.7-2.7 4-3.7.5-1.5 1.6-1.9 5.3-1.9 5.5 0 11.7-2.7 15.2-6.4 2.1-2.3 2.5-3.8 2.6-9.4l.1-6.7 12.4-6.2c6.8-3.5 12.8-6.3 13.5-6.3.6 0 1.4 2.6 1.8 6.1zm-78.8 12c1.5 1.5 4.6 3.5 7 4.3 4.9 1.6 15.4 9.4 15.4 11.3 0 1.7-4 5.3-6.6 5.9a22 22 0 01-6 .2c-3.6-.3-4.4-1-10.5-9l-6.7-8.7 1-4.8c1.4-7.4 1.9-8.2 2.9-4.9.4 1.6 2 4.2 3.5 5.7zm40.9 1.6c2.5 1 4.5 2.2 4.5 2.6 0 2-2.3 4.8-5 6.2-4.9 2.5-11 1.9-16.6-1.7-4.1-2.7-4.6-3.3-2.8-3.6 3.7-.5 5.9-3.9 5.8-8.8l-.1-4.3 4.9 3.8c2.6 2.2 6.8 4.7 9.3 5.8zm-49.9-7c-2.2 7.7-2 8.7 4.3 19.5a74.2 74.2 0 016.1 11.6c0 2.4-4.7 4.3-10.2 4l-5.3-.3-4.7-9.5a48.9 48.9 0 01-4.8-11.9c0-3.4 3.7-8.9 8.3-12.2 4.6-3.3 7.1-3.8 6.3-1.2zM678 646.8c0 2.1 1.1 6.7 2.6 10.1a29 29 0 012.2 6.6 56 56 0 01-7.8-3.4c-7.9-3.8-8.9-5.3-7.6-10.7.7-2.6 5.9-6.4 8.9-6.4 1.3 0 1.7.8 1.7 3.8zm123.4 16.9c5.6 5.4 9.5 11.8 9.6 15.5 0 1.4-21.3 31.2-30.3 42.5-2.7 3.5 1.6.1 15-11.8 27-24 26.6-24.2 6.3 4.2-10.1 14-20.3 28-22.8 31.2-2.4 3.2-4.2 6-4 6.2.2.2 6.2-4.6 13.3-10.7a1478 1478 0 0144.9-37.8c.7 0-9.7 19-14.6 26.5a221 221 0 01-28.8 34.8c-4.4 4.1-14 12.1-21.3 17.6l-13.2 10-3.8-3.7a141.7 141.7 0 01-21-27.5c-10.1-17.9-14.1-36.5-14.9-68.6l-.3-11.4 12.5-4.2a577 577 0 0047.3-18.9l12.2-5.4 4 2.9a138 138 0 019.9 8.6zm-280.3 76.5a76.4 76.4 0 010 27.8c-.8 3-3.1 9.4-5.3 14.1-3.5 7.6-4.4 8.8-7 9.3a349 349 0 01-52.2-.9c-7.1-.8-13.1-1.7-13.3-1.8-.4-.4 10.1-36.4 10.8-37.2.3-.3 4.1-1.4 8.5-2.6 6.4-1.7 16.3-5.2 27.4-9.7 2.1-.8-6.5 9.8-16.2 20.1a35.5 35.5 0 00-7.2 8.7 89.4 89.4 0 0052.5-33c.4 0 1.3 2.4 2 5.2zm50.2 14l-19.2 35-16.4 29.7-4.5.7c-6.7 1-35.1-.3-46.6-2.1-48.3-7.6-100.3-28.9-147.1-60.2-6-4-10.7-7.3-10.4-7.3.4 0 8.3 3.8 17.5 8.4a610.2 610.2 0 0065.4 28.1 366.6 366.6 0 0073.5 18.5c10 1.3 37 1.6 42.7.5 3.9-.7 3.8-.7 23.2-25.9l8-10.2 10-12.8c3.3-4.2 6.1-7.6 6.3-7.6.3 0-.8 2.4-2.4 5.2zm-236.3 19a913.3 913.3 0 0026 16.8l2.5 1.4-3 .7c-1.6.4-7.9 1.5-14 2.4a316.9 316.9 0 00-48.4 12c-35.6 12.4-63.7 32.6-80.6 57.8l-5.2 7.8-4.5-6.8a520 520 0 01-8.7-13.7l-4.2-6.8 2.7-4.2c4.6-7.1 24.3-25.7 38.4-36.2a593.8 593.8 0 0154.5-35.9c8.3-4.8 15.9-9.4 17-10.1 1.1-.7 2.5-1.2 3-1 .6.2 11.6 7.3 24.5 15.8zm30.7 32.5c.5 1.8 34.4 77.9 40.9 92.2l3.4 7.4-7.3 14.1a500.2 500.2 0 01-38.8 61.1c-17.9 24.9-16.3 23.3-20.2 21a447.9 447.9 0 01-56.2-43.7c-19.6-17.4-54.4-54.7-54.5-58.3 0-1.6 19.3-22.7 30.1-32.9a273.4 273.4 0 0141.5-33.2 269.7 269.7 0 0149.4-25.8c9.7-4.1 10.8-4.3 11.7-1.9zm73.8 23.6l42.3 10.2c10.6 2.6 19.2 4.8 19 5-.2.2-10.2-.1-22.2-.6a321 321 0 00-22.3-.5c-.2.2 2 4.4 5.1 9.3 28.2 45.6 68.8 72.9 119.5 80.3 4.5.7 7.9 1.6 7.4 2.1a188 188 0 01-32.5 10c-19.3 4-42.2 2.9-60.8-3.1-40.4-12.9-78-52.4-107.2-112.5-3.2-6.6-5.8-12.5-5.8-13.1 0-.7 6.7.6 17.3 3.1 9.4 2.4 27.6 6.8 40.2 9.8z"/><path d="M521.5 401c-4.9 1-13.6 3-19.2 4.4-12.2 3.1-12.3 3.1-12.3.6 0-1.1-.6-2-1.4-2-2 0-21.2 9.1-32.9 15.6a328.6 328.6 0 00-35.6 23.3 267.3 267.3 0 00-34.1 32.6l-4.3 5.6 3 3.6a18 18 0 003.9 4c.5.1 2.8-2.4 5.1-5.6 7-9.6 20-23.7 29.2-31.8 17.3-15.2 36.7-26 60.4-33.8 11.9-3.9 35.5-9.5 40.3-9.5 1.6 0 8.4-6.8 8.4-8.4 0-.7.2-.8-10.5 1.4zM374.5 491c-6.2 9.3-17.9 32.4-16.7 32.8.5.1 3.4-.7 6.5-1.8 5.2-2 5.8-2.5 10.6-10.7l5.2-8.6-.3-9.6-.3-9.6-5 7.5zM351.9 539.2a225 225 0 00-6.4 30.7c.2.2 1-.9 1.6-2.5l7.7-16.9 6.8-15.1c.3-.6-.6-1.4-1.9-1.8-1.4-.3-3.2-.9-4-1.2-1.2-.4-2.1 1.1-3.8 6.8zM680.1 457l-3.4 7.9 4.9 7.8c2.6 4.3 8 12.7 11.9 18.8 4 6 8.5 13.2 10 15.9l2.9 4.9 1.7-2.2c1.7-2.1 1.6-2.5-4-15.4L691.5 466a501 501 0 00-7.4-16.2c-.3-.4-2.1 2.9-4 7.2z"/></svg><svg id="opyt-12-let" x="0" y="0" viewBox="0 0 504 504" xml:space="preserve"><path class="nst0" d="M476 456c-13.2 0-24 10.8-24 24s10.8 24 24 24 24-10.8 24-24-10.8-24-24-24zm0 32c-4.4 0-8-3.6-8-8s3.6-8 8-8 8 3.6 8 8-3.6 8-8 8zM52 24C52 10.8 41.2 0 28 0S4 10.8 4 24s10.8 24 24 24 24-10.8 24-24zm-32 0c0-4.4 3.6-8 8-8s8 3.6 8 8-3.6 8-8 8-8-3.6-8-8zM433.8 317L418 285.4c3.4-6.8 6.2-13.7 8.6-20.5l33.4-11.2v-91.5L426.6 151c-2.4-6.8-5.2-13.7-8.6-20.5l15.8-31.6-64.7-64.7L337.4 50c-6.8-3.4-13.7-6.2-20.5-8.6L305.8 8h-91.5l-11.2 33.4c-6.8 2.4-13.7 5.2-20.5 8.6L151 34.2 86.2 98.9l15.8 31.6c-3.4 6.8-6.2 13.7-8.6 20.5L60 162.2v91.5l33.4 11.1c2.3 6.8 5.2 13.6 8.5 20.3L91.7 304H44v160h56v-24h60.7l24 24H228v8c0 17.6 14.4 32 32 32s32-14.4 32-32v-8h56a24 24 0 0017.8-40c3.8-4.3 6.2-9.8 6.2-16s-2.4-11.7-6.2-16a24 24 0 005.9-12.3l62.1-62.7zm-315.7-35.3c-4.4-8.5-8-17-10.7-25.5l-1.2-3.9L76 242.2v-68.5l30.2-10.1 1.2-3.9a159 159 0 0110.7-25.5l1.9-3.6-14.3-28.6 48.4-48.4L182.7 68l3.6-1.9c8.5-4.4 17-8 25.5-10.7l3.9-1.2L225.8 24h68.5l10.1 30.2 3.9 1.2a159 159 0 0125.5 10.7l3.6 1.9L366 53.7l48.4 48.4-14.4 28.6 1.9 3.6c4.4 8.5 8 17 10.7 25.5l1.2 3.9 30.2 10.1v68.5l-30.2 10.1-1.2 3.9a159 159 0 01-10.7 25.5l-1.9 3.6 14.3 28.6-47.3 47.6-1.3-1.6a24 24 0 006.2-16 24 24 0 00-21.8-23.8C384.2 293 404 252.2 404 208c0-79.4-64.6-144-144-144s-144 64.6-144 144a144 144 0 0053.6 112h-68.4l18.9-34.5-2-3.8zM356 408a8 8 0 01-8 8h-64c-4.4 0-8-3.6-8-8s3.6-8 8-8h64a8 8 0 018 8zM240.7 208h38.6l12.7-12.7V160a16 16 0 0116 16v36.7L280.7 240h-41.4L212 212.7V176a16 16 0 0116-16v35.3l12.7 12.7zm3.3 48h32v32h-32v-32zm48-4.7l32-32V176a32 32 0 00-32-32h-16v44.7l-3.3 3.3h-25.4l-3.3-3.3V144h-16a32 32 0 00-32 32v43.3l32 32V288h-19.3l-.5.5A96 96 0 01164 208c0-52.9 43.1-96 96-96s96 43.1 96 96a95.5 95.5 0 01-43.3 80H292v-36.7zm80-43.3a112 112 0 10-175.5 92.2L185 311.7A128.1 128.1 0 11388 208c0 39.5-17.9 76-48.4 100.2a23.4 23.4 0 00-8-14.2 111.5 111.5 0 0040.4-86zm-24 128c4.4 0 8 3.6 8 8s-3.6 8-8 8h-64c-4.4 0-8-3.6-8-8s3.6-8 8-8h64zm-64 48c-4.4 0-8-3.6-8-8s3.6-8 8-8h64c4.4 0 8 3.6 8 8s-3.6 8-8 8h-64zM84 448H60V320h24v128zm107.3 0l-24-24H100v-88h83.3l32-32H316c4.4 0 8 3.6 8 8s-3.6 8-8 8h-83.3l-34.3 34.3 11.3 11.3 18.3-18.3V448h-36.7zm68.7 40a16 16 0 01-16-16V336h17.5c-.9 2.5-1.5 5.2-1.5 8a24 24 0 006.2 16c-3.8 4.3-6.2 9.8-6.2 16s2.4 11.7 6.2 16c-3.8 4.3-6.2 9.8-6.2 16s2.4 11.7 6.2 16a24 24 0 009.8 38.5v9.5a16 16 0 01-16 16zm88-40h-64c-4.4 0-8-3.6-8-8s3.6-8 8-8h64c4.4 0 8 3.6 8 8s-3.6 8-8 8zM20 72h16v16H20V72zM20 112h16v16H20v-16zM20 152h16v16H20v-16zM468 336h16v16h-16v-16zM468 376h16v16h-16v-16zM468 416h16v16h-16v-16z"/></svg><svg viewBox="-25 0 510 510.3" id="paperclip"><path d="M427.8 314.5l-37.7-37.8L220.3 107A80 80 0 00107 220.1L276.9 390a17.8 17.8 0 1025.1-25.2L132.2 195a44.5 44.5 0 1163-62.9L365 301.9l37.7 37.7A80 80 0 11289.5 453L258 421.4 82 245.3l-12.7-12.6A115.6 115.6 0 01233 69.2l188.6 188.7a17.8 17.8 0 0025.2-25.2L258 44A151.2 151.2 0 0044.2 258l188.7 188.7 31.4 31.4a115.6 115.6 0 00163.5-163.5zm0 0"/></svg><svg id="parking" x="0" y="0" viewBox="0 0 512 512" xml:space="preserve"><path class="pst0" d="M227 351.2h-46c-7.4 0-13.5 6-13.5 13.4v46.1c0 7.4 6 13.4 13.5 13.4h46c7.4 0 13.4-6 13.4-13.4v-46.1c.1-7.4-6-13.4-13.4-13.4zm-1.5 57.9h-42.9v-42.9h42.9v42.9z"/><path class="pst0" d="M494.1 353.1h-53.6-92.8H276.8v-10c0-15.3-4.6-30.1-13.3-42.8a7.4 7.4 0 00-10.4-1.9 7.4 7.4 0 00-1.9 10.4 60.5 60.5 0 0110.7 34.3v143.3c0 5.9-4.8 10.7-10.7 10.7h-36.9c.3-1.3.4-2.6.4-4v-19.7a19 19 0 00-19-19H151V308.2a60.7 60.7 0 0178.3-19c3.7 2 8.2.6 10.1-3.1 2-3.7.6-8.2-3.1-10.1a76 76 0 00-85.4 9.9v-40.8a124 124 0 10-53.8.1v105.3c0 4.1 3.4 7.5 7.5 7.5s7.5-3.4 7.5-7.5v-103a120.5 120.5 0 0024 0v206.8h-24V385c0-4.1-3.4-7.5-7.5-7.5s-7.5 3.4-7.5 7.5v69.3H58a19 19 0 00-19 19V493a19 19 0 0019 19h193.1a25.7 25.7 0 0025.7-25.7v-68.6H493.9c9.9 0 17.9-8 17.9-17.9V371c.2-9.9-7.8-17.9-17.7-17.9zM15 124.1a109.2 109.2 0 11127.4 107.5l-.4.1A109.3 109.3 0 0115 124.1zM54 493v-19.7a4 4 0 014-4h137.7a4 4 0 014 4V493a4 4 0 01-4 4H58a4 4 0 01-4-4zm283.4-90.3l15.1-34.6h76.4l-15.1 34.6h-76.4zm-60.6-34.6h59.3L321 402.7h-44.3l.1-34.6zM497 399.8c0 1.6-1.3 2.9-2.9 2.9h-63.9l15.1-34.6h48.8c1.6 0 2.9 1.3 2.9 2.9v28.8z"/><path class="pst0" d="M155.8 100.6A27.3 27.3 0 00129 72.8h-16.8c-2.1 0-4.1 0-6.2.9a9 9 0 00-5.4 8.8v35c0 3.1 1 5.6 2.8 7.4 2.5 2.5 5.6 2.7 7.8 2.7h17.5c7.2 0 13.7-2.8 18.9-8a25.2 25.2 0 008.2-19zm-18.7 8.5a11 11 0 01-8.3 3.6h-13.2V87.9H129c3.4 0 6 1.1 8.2 3.5 2.4 2.6 3.5 5.5 3.5 9.2a11 11 0 01-3.6 8.5z"/><path class="pst0" d="M173.6 140.7a54.6 54.6 0 0015.7-40.3c0-16.6-5.6-30.4-16.5-40.9a58.7 58.7 0 00-42.1-15.7H92.5a24.4 24.4 0 00-24.4 24.5V181a23.9 23.9 0 0023.7 24.2 23 23 0 0016.7-7c4.6-4.6 7-10.4 7-16.7v-25.2h17a56.5 56.5 0 0041.1-15.6zm-65.4.5a7.6 7.6 0 00-7.5 7.5v32.7c0 2.4-.8 4.3-2.6 6.1-1.8 1.8-3.7 2.6-6.1 2.6s-4.3-.8-6.1-2.6a8.7 8.7 0 01-2.6-6.5V68.3c0-2.8.9-5 2.7-6.8 1.9-1.9 4-2.7 6.7-2.7h38.1c13.2 0 23.6 3.8 31.7 11.5 8 7.7 11.9 17.6 11.9 30.1s-3.7 22.2-11.2 29.7a41 41 0 01-30.4 11.2l-24.6-.1z"/></svg><svg aria-hidden="true" viewBox="0 0 512 512" id="phone"><path d="M497.4 361.8l-112-48a24 24 0 00-28 6.9l-49.6 60.6a370.7 370.7 0 01-177.2-177.2l60.6-49.6a24 24 0 006.9-28l-48-112A24.2 24.2 0 00122.6.6l-104 24A24 24 0 000 48a464 464 0 00464 464 24 24 0 0023.4-18.6l24-104a24.3 24.3 0 00-14-27.6z"/></svg><svg viewBox="-17 -141 558.7 558" id="send"><path d="M489.9-7.9H218.8c-21 0-41.8 16.5-47.4 37.3L119 225a35.6 35.6 0 005.3 31c6.5 8.4 16.6 13.1 27.1 13h271.1c21 0 41.9-16.5 47.4-37.3L522.3 36c3-11.2 1.1-22.7-5.2-31a33.9 33.9 0 00-27.2-12.9zm-44 233.1c-2.7 10-13.6 18.8-23.4 18.8h-271c-2.4 0-5.6-.6-7.4-3-1.7-2.2-2-5.6-1-9.4l14.2-53.3 101.3-57.6 57.4 81.2a12.5 12.5 0 0017 3.2l80.9-52.6 43 31.2zm52.4-195.7L463.9 158l-42.3-30.7c-4.2-3-9.8-3.1-14.1-.3l-78 50.8-57-80.6a12.5 12.5 0 00-16.4-3.7l-89.7 51 29-108.6c2.7-9.9 13.6-18.7 23.4-18.7h271c2.4 0 5.6.6 7.5 3 1.6 2.2 2 5.6 1 9.4zm0 0"/><path d="M367.3 37.1a60.9 60.9 0 00-56 44 40.8 40.8 0 006 35.7 38.9 38.9 0 0031.4 14.6 60.9 60.9 0 0056-43.9 40.8 40.8 0 00-6-35.8 38.9 38.9 0 00-31.4-14.6zm13.3 44a36 36 0 01-32 25.4c-5 0-9-1.7-11.5-4.9-2.6-3.4-3.3-8.4-1.7-14.1a36 36 0 0131.9-25.4c5.1 0 9.1 1.6 11.6 4.8 2.6 3.5 3.2 8.5 1.7 14.1zm0 0M25.2 81.9h116.5a12.5 12.5 0 000-25H25.2a12.5 12.5 0 100 25zm0 0M122.4 130.5c0-6.9-5.6-12.4-12.5-12.4H41.1a12.5 12.5 0 100 24.9h68.8c6.9 0 12.5-5.6 12.5-12.5zm0 0M88.7 179.2H12.5a12.5 12.5 0 000 25h76.2a12.5 12.5 0 100-25zm0 0"/></svg><svg id="spray-color" x="0" y="0" viewBox="0 0 480 480" xml:space="preserve"><path class="sst0" d="M304 360H16v-88a24 24 0 0124-24h136v-16H60.9l51.6-103.2c2.7-5.4 8.2-8.9 14.3-8.8H296v-16H126.8a31.9 31.9 0 00-28.6 17.7L43.1 232H40a40 40 0 00-40 40v184a24 24 0 0024 24h64a24 24 0 0024-24v-48h192v-16H40c-1.5 0-3-.2-4.4-.4l-1.3-.3c-1-.2-1.9-.5-2.9-.9l-1.3-.6-2.7-1.5-1-.6a27 27 0 01-3.2-2.7l-.5-.5c-.8-.8-1.5-1.7-2.2-2.7l-.7-1.2-1.4-2.6-.6-1.3-.2-.8H304V360zM80 408h16v48a8 8 0 01-8 8h-8v-56zm-32 0h16v56H48v-56zm-29-6.1a41.6 41.6 0 0011.3 4.8l1.7.5V464h-8a8 8 0 01-8-8v-56l1 .6 2 1.3z"/><path class="sst0" d="M168 280h136v-16H168a24 24 0 00-24 24v32a24 24 0 0024 24h136v-16H168a8 8 0 01-8-8v-8h144v-16H160v-8a8 8 0 018-8zM104 264H56a24 24 0 00-24 24v32a24 24 0 0024 24h48a24 24 0 0024-24v-32a24 24 0 00-24-24zm8 56a8 8 0 01-8 8H56a8 8 0 01-8-8v-32a8 8 0 018-8h48a8 8 0 018 8v32z"/><path class="sst0" d="M480 224v-24a8 8 0 00-8-8h-34.2l-6.2-18.5a8 8 0 00-7.6-5.5h-24v-12.7A64.4 64.4 0 00440 96V8a8 8 0 00-8-8H320a8 8 0 00-8 8v88c.1 26 15.9 49.4 40 59.3V168h-48v-8h-16v11.1l-27.6 13.8a8 8 0 00-4.4 7.2v16c0 3 1.7 5.8 4.4 7.2l27.6 13.8V240h16v-8h45.4l-8.7 30.4A13.2 13.2 0 01328 272v16c13 0 24.5-8.7 28.1-21.2l.8-2.8h27l14.4 72H376v16h25.4l6.7 33.6a8 8 0 007.8 6.4h16v16a8 8 0 01-8 8h-72a32 32 0 100 64h128v-16H352c-8.8 0-16-7.2-16-16s7.2-16 16-16h72a24 24 0 0024-24v-16h16a8 8 0 008-8l-.1-1.3-23-138.2 26.7-13.3a8.2 8.2 0 004.4-7.2zm-192-12.9l-16-8V197l16-8v22.1zM328 16h96v16h-96V16zm0 80V48h96v48a48.3 48.3 0 01-34.3 46 8 8 0 00-5.7 7.7V168h-16v-18.4a8 8 0 00-5.7-7.7A48.1 48.1 0 01328 96zm33.5 152l4.6-16h11.4l3.2 16h-19.2zM464 219.1l-27.6 13.8a8 8 0 00-4.3 8.5l1.1 6.7H416v16h19.9l2.7 16H424v16h17.2l2.7 16H432v16h14.6l2.7 16H440v16h11.9l2.7 16h-32l-30.7-153.6a8 8 0 00-7.8-6.4h-80v-32h114.2l6.2 18.5a8 8 0 007.6 5.5h32v11z"/><rect x="184" y="192" class="sst0" width="56" height="16"/><rect x="208" y="137.2" transform="rotate(-63.4 216 164)" class="sst0" width="16" height="53.7"/><rect x="189.1" y="228" transform="rotate(-26.6 216 236)" class="sst0" width="53.7" height="16"/><rect x="152" y="192" class="sst0" width="16" height="16"/><rect x="160" y="136" class="sst0" width="16" height="16"/><rect x="136" y="160" class="sst0" width="16" height="16"/><path class="sst0" d="M360 96h-16a32 32 0 0032 32v-16a16 16 0 01-16-16z"/><rect x="344" y="64" class="sst0" width="16" height="16"/></svg><svg aria-hidden="true" data-prefix="fab" data-icon="telegram-plane" class="tsvg-inline--fa tfa-telegram-plane tfa-w-14" viewBox="-32 0 512 512" id="telegram"><path fill="currentColor" d="M446.7 98.6l-67.6 318.8c-5.1 22.5-18.4 28.1-37.3 17.5l-103-75.9-49.7 47.8c-5.5 5.5-10.1 10.1-20.7 10.1l7.4-104.9 190.9-172.5c8.3-7.4-1.8-11.5-12.9-4.1L117.8 284 16.2 252.2c-22.1-6.9-22.5-22.1 4.6-32.7L418.2 66.4c18.4-6.9 34.5 4.1 28.5 32.2z"/></svg><svg aria-hidden="true" data-prefix="fab" data-icon="twitter" viewBox="-36.57 -36.57 585.14 585.14" id="twitter"><path fill="currentColor" d="M459.4 151.7c.3 4.6.3 9.1.3 13.7 0 138.7-105.6 298.5-298.6 298.5A296.5 296.5 0 010 417a217 217 0 0025.3 1.2c49 0 94.3-16.6 130.3-44.8-46.1-1-84.8-31.2-98.1-72.8a111 111 0 0047.4-2 105 105 0 01-84.1-103v-1.2c14 7.8 30.2 12.6 47.4 13.3A104.9 104.9 0 0135.7 67.2a298.3 298.3 0 00216.4 109.9 104.9 104.9 0 01179-95.8 206.6 206.6 0 0066.6-25.4 104.7 104.7 0 01-46.1 57.8c21-2.3 41.6-8.1 60.4-16.2a225.6 225.6 0 01-52.6 54.2z"/></svg><svg aria-hidden="true" data-prefix="fab" data-icon="viber" class="vsvg-inline--fa vfa-viber vfa-w-16" viewBox="-36.57 -36.57 585.14 585.14" id="viber"><path fill="currentColor" d="M444 49.9C431.3 38.2 379.9.9 265.3.4c0 0-135.1-8.1-200.9 52.3C27.8 89.3 14.9 143 13.5 209.5c-1.4 66.5-3.1 191.1 117 224.9h.1l-.1 51.6s-.8 20.9 13 25.1c16.6 5.2 26.4-10.7 42.3-27.8a1572 1572 0 0029.8-33.7 464.7 464.7 0 00152.5-11.2c16.6-5.4 110.5-17.4 125.7-142 15.8-128.6-7.6-209.8-49.8-246.5zM457.9 287c-12.9 104-89 110.6-103 115.1a430 430 0 01-131.2 11.2s-52 62.7-68.2 79c-5.3 5.3-11.1 4.8-11-5.7l.4-85.7c-.1 0-.1 0 0 0-101.8-28.2-95.8-134.3-94.7-189.8 1.1-55.5 11.6-101 42.6-131.6 55.7-50.5 170.4-43 170.4-43 96.9.4 143.3 29.6 154.1 39.4 35.7 30.6 53.9 103.8 40.6 211.1zm-139-80.8c.4 8.6-12.5 9.2-12.9.6-1.1-22-11.4-32.7-32.6-33.9-8.6-.5-7.8-13.4.7-12.9 27.9 1.5 43.4 17.5 44.8 46.2zm20.3 11.3c1-42.4-25.5-75.6-75.8-79.3-8.5-.6-7.6-13.5.9-12.9 58 4.2 88.9 44.1 87.8 92.5-.1 8.6-13.1 8.2-12.9-.3zm47 13.4c.1 8.6-12.9 8.7-12.9.1-.6-81.5-54.9-125.9-120.8-126.4-8.5-.1-8.5-12.9 0-12.9 73.7.5 133 51.4 133.7 139.2zM374.9 329v.2c-10.8 19-31 40-51.8 33.3l-.2-.3c-21.1-5.9-70.8-31.5-102.2-56.5a261.4 261.4 0 01-42.4-42.4 324.5 324.5 0 01-30.8-46.6c-21.3-38.5-26-55.7-26-55.7-6.7-20.8 14.2-41 33.3-51.8h.2c9.2-4.8 18-3.2 23.9 3.9 0 0 12.4 14.8 17.7 22.1 5 6.8 11.7 17.7 15.2 23.8 6.1 10.9 2.3 22-3.7 26.6l-12 9.6c-6.1 4.9-5.3 14-5.3 14s17.8 67.3 84.3 84.3c0 0 9.1.8 14-5.3l9.6-12c4.6-6 15.7-9.8 26.6-3.7a259.1 259.1 0 0145.8 32.9c7 5.7 8.6 14.4 3.8 23.6z"/></svg><svg aria-hidden="true" data-prefix="fab" data-icon="vk" viewBox="-41.14 -73.14 658.29 658.27" id="vk"><path fill="currentColor" d="M545 117.7c3.7-12.5 0-21.7-17.8-21.7h-58.9c-15 0-21.9 7.9-25.6 16.7 0 0-30 73.1-72.4 120.5-13.7 13.7-20 18.1-27.5 18.1-3.7 0-9.4-4.4-9.4-16.9V117.7c0-15-4.2-21.7-16.6-21.7h-92.6c-9.4 0-15 7-15 13.5 0 14.2 21.2 17.5 23.4 57.5v86.8c0 19-3.4 22.5-10.9 22.5-20 0-68.6-73.4-97.4-157.4-5.8-16.3-11.5-22.9-26.6-22.9H38.8c-16.8 0-20.2 7.9-20.2 16.7 0 15.6 20 93.1 93.1 195.5C160.4 378.1 229 416 291.4 416c37.5 0 42.1-8.4 42.1-22.9 0-66.8-3.4-73.1 15.4-73.1 8.7 0 23.7 4.4 58.7 38.1 40 40 46.6 57.9 69 57.9h58.9c16.8 0 25.3-8.4 20.4-25-11.2-34.9-86.9-106.7-90.3-111.5-8.7-11.2-6.2-16.2 0-26.2.1-.1 72-101.3 79.4-135.6z"/></svg><svg aria-hidden="true" data-prefix="fab" data-icon="whatsapp" class="xsvg-inline--fa xfa-whatsapp xfa-w-14" viewBox="-105.13 -73.13 658.25 658.27" id="whatsapp"><path fill="currentColor" d="M380.9 97.1a220.3 220.3 0 00-157-65.1A222.3 222.3 0 0031.5 365L0 480l117.7-30.9c32.4 17.7 68.9 27 106.1 27h.1c122.3 0 224.1-99.6 224.1-222 0-59.3-25.2-115-67.1-157zm-157 341.6c-33.2 0-65.7-8.9-94-25.7l-6.7-4-69.8 18.3L72 359.2l-4.4-7A184.8 184.8 0 01224 69.5c49.3 0 95.6 19.2 130.4 54.1a185.2 185.2 0 0156.1 130.5c0 101.8-84.9 184.6-186.6 184.6zm101.2-138.2a802 802 0 00-37.9-18c-5.1-1.9-8.8-2.8-12.5 2.8-3.7 5.6-14.3 18-17.6 21.8-3.2 3.7-6.5 4.2-12 1.4-32.6-16.3-54-29.1-75.5-66-5.7-9.8 5.7-9.1 16.3-30.3 1.8-3.7.9-6.9-.5-9.7-1.4-2.8-12.5-30.1-17.1-41.2-4.5-10.8-9.1-9.3-12.5-9.5-3.2-.2-6.9-.2-10.6-.2-3.7 0-9.7 1.4-14.8 6.9-5.1 5.6-19.4 19-19.4 46.3 0 27.3 19.9 53.7 22.6 57.4 2.8 3.7 39.1 59.7 94.8 83.8 35.2 15.2 49 16.5 66.6 13.9 10.7-1.6 32.8-13.4 37.4-26.4 4.6-13 4.6-24.1 3.2-26.4-1.3-2.5-5-3.9-10.5-6.6z"/></svg></svg>